<?xml version="1.0" encoding="UTF-8"?>
<svg version="1.1" xmlns="http://www.w3.org/2000/svg" width="500" height="500">
<path d="M0 0 C5.35074846 0.45345326 10.2953959 1.2856248 15.5 2.625 C24.39896481 4.73101951 30.82743929 3.132967 39.46875 0.6328125 C42.37452083 -0.09363021 45.01624482 -0.2419261 48 0 C46.75 1.5 46.75 1.5 45 3 C43.68 3 42.36 3 41 3 C41.33 3.33 41.66 3.66 42 4 C42.74749512 3.8448291 43.49499023 3.6896582 44.26513672 3.52978516 C47.05554638 2.98923981 48.96915018 3.08521104 51.7578125 3.5234375 C52.63050781 3.6575 53.50320313 3.7915625 54.40234375 3.9296875 C55.30082031 4.07664063 56.19929687 4.22359375 57.125 4.375 C58.03121094 4.51421875 58.93742188 4.6534375 59.87109375 4.796875 C63.37038843 5.34639387 66.6327238 5.8775746 70 7 C70 7.66 70 8.32 70 9 C70.95261719 9.19335938 71.90523437 9.38671875 72.88671875 9.5859375 C74.14097656 9.84632813 75.39523437 10.10671875 76.6875 10.375 C77.92886719 10.63023437 79.17023438 10.88546875 80.44921875 11.1484375 C83.47403318 11.87386054 86.16059255 12.75131221 89 14 C89 14.66 89 15.32 89 16 C93.03566835 14.93798201 96.29142604 13.30026566 99.8125 11.125 C109.22074568 5.33857522 116.94600677 2.80941391 128 3 C128 3.66 128 4.32 128 5 C128.62648438 5.13277344 129.25296875 5.26554688 129.8984375 5.40234375 C130.71570313 5.57894531 131.53296875 5.75554687 132.375 5.9375 C133.18710937 6.11152344 133.99921875 6.28554687 134.8359375 6.46484375 C137 7 137 7 139 8 C139 8.66 139 9.32 139 10 C139.61875 10.268125 140.2375 10.53625 140.875 10.8125 C143 12 143 12 145 15 C144.34 15 143.68 15 143 15 C143.27714844 15.53109375 143.55429687 16.0621875 143.83984375 16.609375 C144.20207031 17.31578125 144.56429687 18.0221875 144.9375 18.75 C145.47697266 19.79414063 145.47697266 19.79414063 146.02734375 20.859375 C150.09652533 29.8148429 148.50437243 40.30646983 145.4921875 49.33203125 C144.31749502 52.21956066 143.07096864 54.97007599 141.6953125 57.76171875 C141.07934204 59.013479 141.07934204 59.013479 140.45092773 60.29052734 C139.62538774 61.93841684 138.77927204 63.57620079 137.91040039 65.20166016 C135.22585212 70.47521721 134.18798705 74.25990783 136 80 C137.10268484 82.66372876 138.43188721 85.13188041 139.875 87.625 C140.58136737 88.88766402 141.28710503 90.15068053 141.9921875 91.4140625 C142.33088867 92.01766602 142.66958984 92.62126953 143.01855469 93.24316406 C147 100.37014925 147 100.37014925 147 105 C145 105 145 105 143.375 103.5 C142.92125 103.005 142.4675 102.51 142 102 C142.26554688 102.59425781 142.53109375 103.18851562 142.8046875 103.80078125 C143.33449219 105.04408203 143.33449219 105.04408203 143.875 106.3125 C144.39707031 107.51326172 144.39707031 107.51326172 144.9296875 108.73828125 C147.79638842 117.47439538 148.27732501 126.05385824 148.125 135.1875 C148.11597656 136.23486328 148.10695313 137.28222656 148.09765625 138.36132812 C148.07440075 140.90780514 148.04172569 143.45377031 148 146 C147.34 146.33 146.68 146.66 146 147 C145.89042969 146.35933594 145.78085937 145.71867188 145.66796875 145.05859375 C145.50941406 144.19363281 145.35085938 143.32867187 145.1875 142.4375 C145.03667969 141.59058594 144.88585937 140.74367188 144.73046875 139.87109375 C143.83812451 136.36375141 142.48791561 133.29787322 141 130 C141.0407666 130.58265625 141.0815332 131.1653125 141.12353516 131.765625 C142.11732094 146.68120629 142.37114518 160.55862162 138 175 C137.34 175 136.68 175 136 175 C135.34 171.04 134.68 167.08 134 163 C133.5978125 165.59875 133.5978125 165.59875 133.1875 168.25 C132.79995659 170.50144268 132.40391802 172.75143729 132 175 C131.82855469 175.98226562 131.65710938 176.96453125 131.48046875 177.9765625 C129.21920842 188.80143452 123.71211662 199.94733417 115 207 C114.34 207 113.68 207 113 207 C114.75027531 202.49812909 116.79186037 198.17009543 118.87890625 193.81640625 C120.05265464 190.86772128 120.58858224 188.13879389 121 185 C120.34644531 186.08667969 120.34644531 186.08667969 119.6796875 187.1953125 C116.24975145 192.7633905 113.07810167 197.82467196 108 202 C106.68 202 105.36 202 104 202 C102.72872045 203.43426411 101.46403905 204.87824234 100.296875 206.3984375 C98.46525772 208.6603745 96.37285648 210.33258734 94 212 C93.34 212 92.68 212 92 212 C92.33 210.35 92.66 208.7 93 207 C92.01 207.33 91.02 207.66 90 208 C90 208.66 90 209.32 90 210 C89.34 210 88.68 210 88 210 C88 210.66 88 211.32 88 212 C87.34 212 86.68 212 86 212 C86 212.66 86 213.32 86 214 C85.34 214 84.68 214 84 214 C84 214.66 84 215.32 84 216 C83.34 216 82.68 216 82 216 C81.6596875 216.7734375 81.6596875 216.7734375 81.3125 217.5625 C76.0625 227.3125 76.0625 227.3125 71 229 C72.2125738 225.27566618 73.50859979 221.62197194 75 218 C74.34 218 73.68 218 73 218 C73 218.66 73 219.32 73 220 C72.34 220 71.68 220 71 220 C71 220.66 71 221.32 71 222 C69.49609375 223.48046875 69.49609375 223.48046875 67.4375 225.1875 C63.89003826 228.18677493 60.63477128 231.33995132 57.4453125 234.71484375 C56 236 56 236 54 236 C54.99 232.04 54.99 232.04 56 228 C55.16855469 228.78246094 54.33710938 229.56492187 53.48046875 230.37109375 C52.38304559 231.39347943 51.28537648 232.41560113 50.1875 233.4375 C49.64029297 233.95376953 49.09308594 234.47003906 48.52929688 235.00195312 C46.03940058 237.31076605 44.25924458 238.91358514 41 240 C41 239.34 41 238.68 41 238 C33.81435431 243.20959312 27.98122998 250.60388291 25 259 C24.34 259 23.68 259 23 259 C22.63648438 258.27554687 22.27296875 257.55109375 21.8984375 256.8046875 C18.8241675 250.8926298 15.86769522 246.5200027 11 242 C11 241.34 11 240.68 11 240 C10.34 240 9.68 240 9 240 C9 239.34 9 238.68 9 238 C8.38125 238.350625 7.7625 238.70125 7.125 239.0625 C6.42375 239.371875 5.7225 239.68125 5 240 C4.34 239.67 3.68 239.34 3 239 C3 238.34 3 237.68 3 237 C2.34 237 1.68 237 1 237 C1 236.34 1 235.68 1 235 C0.1646875 234.6596875 0.1646875 234.6596875 -0.6875 234.3125 C-3.63246684 232.64103234 -5.68156544 230.44723648 -8 228 C-6.69844994 232.07964281 -6.69844994 232.07964281 -5 236 C-8.60571107 235.40716913 -10.54429438 233.97258223 -13.25 231.5625 C-13.95640625 230.94503906 -14.6628125 230.32757813 -15.390625 229.69140625 C-17 228 -17 228 -17 226 C-17.53625 225.79375 -18.0725 225.5875 -18.625 225.375 C-22.0017654 223.42003056 -24.30474839 220.81776305 -27 218 C-26.71125 218.70125 -26.4225 219.4025 -26.125 220.125 C-24.97866412 223.05452503 -23.97374346 226.00921653 -23 229 C-26.98615034 227.45286402 -28.98472065 224.91872641 -31.625 221.625 C-32.78902344 220.19027344 -32.78902344 220.19027344 -33.9765625 218.7265625 C-35.62868937 216.50033749 -36.78583255 214.46190634 -38 212 C-39.91666667 210.83333333 -39.91666667 210.83333333 -42 210 C-42.99 209.34 -43.98 208.68 -45 208 C-44.67 209.32 -44.34 210.64 -44 212 C-45.65 211.34 -47.3 210.68 -49 210 C-49 209.34 -49 208.68 -49 208 C-49.86625 207.6596875 -49.86625 207.6596875 -50.75 207.3125 C-53 206 -53 206 -55 203.375 C-55.66 202.59125 -56.32 201.8075 -57 201 C-58.32 201 -59.64 201 -61 201 C-63.25390625 198.953125 -63.25390625 198.953125 -65.5625 196.25 C-66.70912109 194.92742187 -66.70912109 194.92742187 -67.87890625 193.578125 C-69.65060335 191.42468101 -71.35430709 189.25034047 -73 187 C-72.40357022 188.89828157 -71.79749837 190.79353501 -71.1875 192.6875 C-70.85105469 193.74324219 -70.51460937 194.79898438 -70.16796875 195.88671875 C-69.10752533 199.02936576 -69.10752533 199.02936576 -67.30078125 201.70703125 C-66.87152344 202.46371094 -66.44226563 203.22039062 -66 204 C-66.33 204.99 -66.66 205.98 -67 207 C-68.34227046 205.57084149 -69.67357096 204.13137328 -71 202.6875 C-72.11375 201.48673828 -72.11375 201.48673828 -73.25 200.26171875 C-75 198 -75 198 -75 195 C-75.66 195 -76.32 195 -77 195 C-82.57857626 184.83902182 -85.38355407 174.55836113 -86 163 C-86.66 166.96 -87.32 170.92 -88 175 C-88.66 175 -89.32 175 -90 175 C-94.90866705 160.21225462 -94.79521584 145.41962175 -93 130 C-95.28737745 136.05663678 -95.28737745 136.05663678 -96 142.4375 C-96 143.283125 -96 144.12875 -96 145 C-97.485 145.99 -97.485 145.99 -99 147 C-101.68075775 144.31924225 -100.88599491 137.68633982 -101.00390625 134.07617188 C-100.98911153 126.21277565 -99.61934613 118.23678195 -97.75 110.625 C-97.5025 109.42875 -97.255 108.2325 -97 107 C-97.66 106.34 -98.32 105.68 -99 105 C-98.84639095 99.14478427 -95.82945075 94.49060121 -93.0625 89.5 C-91.71920868 87.05661579 -90.38927073 84.61158076 -89.10668945 82.13574219 C-88.22822038 80.44043059 -87.30186292 78.76994895 -86.359375 77.109375 C-85.73551623 71.71164043 -88.71910936 67.43361301 -91.1875 62.75 C-97.55337613 50.40552538 -101.47223621 40.14896487 -100 26 C-99.16430672 23.42056578 -98.17014422 21.19192356 -96.890625 18.80859375 C-95.74364845 16.47942646 -95.67021546 14.55583015 -96 12 C-95.34 12 -94.68 12 -94 12 C-94 11.34 -94 10.68 -94 10 C-84.85957336 4.59035974 -78.36109458 1.26070388 -67.69140625 3.84765625 C-59.87886115 6.28649308 -52.80715221 10.3379095 -45.75 14.4375 C-43.23733035 16.1646698 -43.23733035 16.1646698 -41 16 C-41 15.34 -41 14.68 -41 14 C-39.83082031 13.67386719 -38.66164062 13.34773437 -37.45703125 13.01171875 C-35.908746 12.57069204 -34.36057486 12.12926462 -32.8125 11.6875 C-32.04357422 11.47416016 -31.27464844 11.26082031 -30.48242188 11.04101562 C-27.22029486 10.1029791 -24.47718586 9.31393806 -21.625 7.4375 C-17.42188132 5.13579215 -12.8978346 4.89140613 -8.1875 4.3125 C-7.20845703 4.18294922 -6.22941406 4.05339844 -5.22070312 3.91992188 C-2.81493629 3.60306478 -0.40831136 3.29678437 2 3 C1.01 1.515 1.01 1.515 0 0 Z M-73 19 C-72.67 19.99 -72.34 20.98 -72 22 C-73.98567708 21.93489583 -75.97135417 21.86979167 -77.95703125 21.8046875 C-80.31359719 21.86745538 -80.31359719 21.86745538 -83 24 C-80.36 24.33 -77.72 24.66 -75 25 C-76.63412443 26.70840281 -77.86906094 27.93453047 -80 29 C-80.24428343 34.7974423 -80.24428343 34.7974423 -78 40 C-79.65 39.01 -81.3 38.02 -83 37 C-82.67 38.98 -82.34 40.96 -82 43 C-81.34 43 -80.68 43 -80 43 C-80 43.99 -80 44.98 -80 46 C-82.475 45.01 -82.475 45.01 -85 44 C-83.14803467 51.56219177 -80.64165248 57.38774134 -74 62 C-73.46375 61.113125 -72.9275 60.22625 -72.375 59.3125 C-70.07296319 55.81804124 -67.25923476 53.5925731 -64 51 C-64 50.67 -64 50.34 -64 50 C-65.98 50 -67.96 50 -70 50 C-70 49.34 -70 48.68 -70 48 C-68.7625 47.7525 -67.525 47.505 -66.25 47.25 C-62.48560327 46.3289242 -60.46922107 45.08652634 -58 42 C-59.65 42 -61.3 42 -63 42 C-63 41.34 -63 40.68 -63 40 C-62.195625 39.938125 -61.39125 39.87625 -60.5625 39.8125 C-55.8364549 38.73463007 -52.12486573 36.48408581 -48 34 C-52.63937092 30.48113887 -52.63937092 30.48113887 -58 29 C-58 28.34 -58 27.68 -58 27 C-59.88052942 25.54805635 -61.83136849 24.18635395 -63.8125 22.875 C-64.89144531 22.15054688 -65.97039062 21.42609375 -67.08203125 20.6796875 C-69.8721871 18.75055739 -69.8721871 18.75055739 -73 19 Z M113.5 21.875 C112.33984375 22.67550781 112.33984375 22.67550781 111.15625 23.4921875 C110.4446875 23.98976562 109.733125 24.48734375 109 25 C108.01 25.66 107.02 26.32 106 27 C106 27.66 106 28.32 106 29 C102.66666667 30.33333333 99.33333333 31.66666667 96 33 C98.26053899 35.52861573 100.39900064 36.83856528 103.5 38.1875 C104.2734375 38.53167969 105.046875 38.87585938 105.84375 39.23046875 C108.08933414 40.16806011 108.08933414 40.16806011 111 40 C111 40.66 111 41.32 111 42 C109.35 42 107.7 42 106 42 C106 42.66 106 43.32 106 44 C107.6232687 44.6708712 109.24867578 45.33657029 110.875 46 C111.77992188 46.37125 112.68484375 46.7425 113.6171875 47.125 C115.88983858 48.11490226 115.88983858 48.11490226 118 48 C118 48.66 118 49.32 118 50 C116.02 50 114.04 50 112 50 C112.721875 50.680625 113.44375 51.36125 114.1875 52.0625 C117.23455693 55.09214518 119.57207954 58.46217304 122 62 C122.763125 61.236875 123.52625 60.47375 124.3125 59.6875 C125.70464692 58.29535308 127.10274243 56.9070181 128.5625 55.5859375 C130.20209961 53.77703141 130.87723896 52.23109608 131.6875 49.9375 C132.06455078 48.89916016 132.06455078 48.89916016 132.44921875 47.83984375 C133.09559601 46.00075479 133.09559601 46.00075479 133 44 C131.35 44.66 129.7 45.32 128 46 C128.99 43.03 129.98 40.06 131 37 C128.87635519 36.77390663 128.87635519 36.77390663 127.375 38.5 C126.92125 38.995 126.4675 39.49 126 40 C126.33 39.484375 126.66 38.96875 127 38.4375 C128.32010877 35.21973488 128.13242105 32.4429472 128 29 C126.35 28.34 124.7 27.68 123 27 C123 26.34 123 25.68 123 25 C125.64 24.67 128.28 24.34 131 24 C127.91111478 21.94074319 127.29064073 21.7609626 123.8125 21.875 C122.554375 21.91625 121.29625 21.9575 120 22 C120.33 21.01 120.66 20.02 121 19 C117.41655009 19 116.39490569 19.8582157 113.5 21.875 Z M-86 42 C-85 44 -85 44 -85 44 Z M133 42 C134 44 134 44 134 44 Z M-58 70 C-23.35 69.505 -23.35 69.505 12 69 C12 68.67 12 68.34 12 68 C3.31611496 67.95368539 -5.36772763 67.91813529 -14.05170918 67.89637566 C-18.08391491 67.8859328 -22.11603622 67.87176449 -26.14819336 67.84912109 C-30.03852863 67.82741053 -33.92878264 67.81543516 -37.81917381 67.81024551 C-39.30435656 67.80654654 -40.7895348 67.79932346 -42.274683 67.78853989 C-44.35289797 67.77404852 -46.43077594 67.77202104 -48.5090332 67.77294922 C-50.28441216 67.76628738 -50.28441216 67.76628738 -52.09565735 67.75949097 C-55.19473685 67.78016731 -55.19473685 67.78016731 -58 70 Z M39 68 C39 68.33 39 68.66 39 69 C59.79 69 80.58 69 102 69 C102 68.67 102 68.34 102 68 C81.21 68 60.42 68 39 68 Z M-62 71 C-62.99 71.99 -63.98 72.98 -65 74 C-63.35 73.34 -61.7 72.68 -60 72 C-60.66 71.67 -61.32 71.34 -62 71 Z M108 71 C110.36292656 73.52588702 111.66462511 74.88820837 115 76 C115 75.34 115 74.68 115 74 C111.77885843 71.68407978 111.77885843 71.68407978 108 71 Z M-67 74 C-66.67 74.66 -66.34 75.32 -66 76 C-65.67 75.34 -65.34 74.68 -65 74 C-65.66 74 -66.32 74 -67 74 Z M-58 78 C-63.53741811 85.38322415 -62.62796468 95.18911291 -62 104 C-61.35998749 108.41943278 -60.25152041 112.7165224 -59 117 C-57.39391367 113.86046442 -55.91577525 110.66638608 -54.43603516 107.46582031 C-50.8442344 99.72017663 -47.04271254 92.12700672 -42.97045898 84.62231445 C-41.08981478 81.14175072 -39.37076507 77.72270934 -38 74 C-48.75461051 73.29240436 -48.75461051 73.29240436 -58 78 Z M-33 74 C-33.688063 75.61694804 -34.37586451 77.23400775 -35.0625 78.8515625 C-35.72811325 80.37692619 -36.41825267 81.89169147 -37.125 83.3984375 C-37.49625 84.19507813 -37.8675 84.99171875 -38.25 85.8125 C-38.60578125 86.56144531 -38.9615625 87.31039062 -39.328125 88.08203125 C-39.54984375 88.71496094 -39.7715625 89.34789062 -40 90 C-39.67 90.66 -39.34 91.32 -39 92 C-38.67 90.68 -38.34 89.36 -38 88 C-37.34 88 -36.68 88 -36 88 C-34.02 83.71 -32.04 79.42 -30 75 C-30.99 74.67 -31.98 74.34 -33 74 Z M-20 74 C-20.29132813 74.61294922 -20.58265625 75.22589844 -20.8828125 75.85742188 C-30.77100918 96.64440138 -30.77100918 96.64440138 -35.3125 105.75 C-35.62960938 106.38583008 -35.94671875 107.02166016 -36.2734375 107.67675781 C-38.68321944 112.46355269 -41.2669382 117.13805372 -43.96875 121.765625 C-45.27937212 124.19516034 -45.27937212 124.19516034 -45 128 C-46.98 128.495 -46.98 128.495 -49 129 C-46.09399739 130.25664978 -44.20395416 131 -41 131 C-40.8040625 130.46375 -40.608125 129.9275 -40.40625 129.375 C-38.06343873 123.23521874 -35.25622299 117.38685902 -32.28198242 111.53491211 C-29.13562509 105.32817138 -26.15959223 99.04802262 -23.23364258 92.73461914 C-21.01692788 87.99474799 -18.60692353 83.44805093 -15.94213867 78.94311523 C-14.78185909 76.91000707 -14.78185909 76.91000707 -15 74 C-16.65 74 -18.3 74 -20 74 Z M-9 74 C-12.63 81.59 -16.26 89.18 -20 97 C-22.94628976 102.88670457 -25.90986083 108.76113003 -28.91601562 114.6171875 C-29.45291016 115.67679688 -29.98980469 116.73640625 -30.54296875 117.828125 C-31.01758545 118.7552832 -31.49220215 119.68244141 -31.98120117 120.63769531 C-33.19800712 123.03035022 -33.19800712 123.03035022 -33 126 C-33.66 126 -34.32 126 -35 126 C-35.66 127.98 -36.32 129.96 -37 132 C-26.85760931 133.30869557 -15.73774466 134.70961701 -6 131 C-6 130.34 -6 129.68 -6 129 C-5.01 129 -4.02 129 -3 129 C-3 128.34 -3 127.68 -3 127 C-2.34 127 -1.68 127 -1 127 C0.527947 124.88819228 0.527947 124.88819228 2 122.25 C2.515625 121.36828125 3.03125 120.4865625 3.5625 119.578125 C4.036875 118.72734375 4.51125 117.8765625 5 117 C5.5878125 115.97132813 5.5878125 115.97132813 6.1875 114.921875 C7.25959713 112.73371404 7.25959713 112.73371404 7 109 C7.66 109 8.32 109 9 109 C9.391875 107.741875 9.78375 106.48375 10.1875 105.1875 C11.27310426 102.34281477 11.86311578 101.12124031 14.1875 99.0625 C20.97341212 96.4989332 26.26302255 96.64205789 33 99 C37.15181962 101.76787975 38.30076537 105.8981208 40 110.3984375 C42.16737444 116.03699756 44.33178232 120.99867056 49 125 C49.33 123.35 49.66 121.7 50 120 C50.66 120 51.32 120 52 120 C52.1959375 119.46375 52.391875 118.9275 52.59375 118.375 C54.93416272 112.24150461 57.74065675 106.40070893 60.70703125 100.55249023 C63.55406473 94.92762201 66.29840053 89.25859166 69 83.5625 C69.39791748 82.72726807 69.79583496 81.89203613 70.20581055 81.03149414 C70.75362183 79.87315063 70.75362183 79.87315063 71.3125 78.69140625 C71.63863281 78.00248291 71.96476562 77.31355957 72.30078125 76.60375977 C73.0666091 75.13881532 73.0666091 75.13881532 73 74 C45.94 74 18.88 74 -9 74 Z M79 74 C78.68248779 74.66531738 78.36497559 75.33063477 78.0378418 76.01611328 C76.58829496 79.05267994 75.13790504 82.08884317 73.6875 85.125 C73.18798828 86.17171875 72.68847656 87.2184375 72.17382812 88.296875 C71.44389648 89.82441406 71.44389648 89.82441406 70.69921875 91.3828125 C70.23177246 92.36540039 69.76432617 93.34798828 69.28271484 94.36035156 C68.26312614 96.45852306 67.19505731 98.50601005 66.08203125 100.5546875 C64.64579946 103.05917102 64.64579946 103.05917102 66 106 C66.49628906 105.00742188 66.99257813 104.01484375 67.50390625 102.9921875 C67.82939453 102.34137207 68.15488281 101.69055664 68.49023438 101.02001953 C69.20950447 99.5811518 69.9282482 98.14202083 70.64648438 96.70263672 C72.44884158 93.09235948 74.25805376 89.48606974 76.08984375 85.890625 C76.57312134 84.93760498 76.57312134 84.93760498 77.06616211 83.96533203 C77.95821051 82.20735534 78.85401379 80.45128548 79.75 78.6953125 C81.14024166 76.19278092 81.14024166 76.19278092 81 74 C80.34 74 79.68 74 79 74 Z M91 74 C90.773125 74.804375 90.54625 75.60875 90.3125 76.4375 C88.96845716 80.08561628 87.27938748 83.21721818 85.31640625 86.55859375 C83.66423934 89.62270153 82.36703562 92.79888667 81 96 C79.80809381 98.4269583 78.60218548 100.8412287 77.375 103.25 C74.17968511 109.60105932 71.02706882 115.97178641 67.9375 122.375 C67.53128418 123.20161133 67.12506836 124.02822266 66.70654297 124.87988281 C66.15377686 126.03375488 66.15377686 126.03375488 65.58984375 127.2109375 C65.25847412 127.89462402 64.92710449 128.57831055 64.58569336 129.28271484 C64.39241455 129.84941895 64.19913574 130.41612305 64 131 C64.33 131.66 64.66 132.32 65 133 C66.98 133 68.96 133 71 133 C71.268125 132.25878906 71.53625 131.51757812 71.8125 130.75390625 C76.80316685 117.3414891 83.04412368 104.64437968 89.8347168 92.06176758 C92.97353431 86.19054352 95.61480859 80.22067509 98 74 C95.69 74 93.38 74 91 74 Z M-69 76 C-69.33 76.66 -69.66 77.32 -70 78 C-69.01 77.67 -68.02 77.34 -67 77 C-67.66 76.67 -68.32 76.34 -69 76 Z M102 76 C101.57086304 76.95700806 101.57086304 76.95700806 101.13305664 77.93334961 C96.0698003 89.19098305 90.96352518 100.36697009 85.08447266 111.22460938 C78.93206644 121.21084206 78.93206644 121.21084206 76 132 C83.40151629 134.21757492 92.50425683 130.88393047 99.4609375 127.96875 C105.48346974 124.28685256 106.9569219 117.8623692 108.68359375 111.46875 C110.87778116 101.42088491 112.04992816 89.19769051 107 80 C104.46900795 77.58855519 104.46900795 77.58855519 102 76 Z M-74 79 C-74 83.29 -74 87.58 -74 92 C-73.34 91.67 -72.68 91.34 -72 91 C-72.33 87.04 -72.66 83.08 -73 79 C-73.33 79 -73.66 79 -74 79 Z M121 79 C120.67 83.29 120.34 87.58 120 92 C120.66 92 121.32 92 122 92 C122 87.71 122 83.42 122 79 C121.67 79 121.34 79 121 79 Z M-41 92 C-41.33 93.32 -41.66 94.64 -42 96 C-41.34 96 -40.68 96 -40 96 C-40.33 94.68 -40.66 93.36 -41 92 Z M-71 93 C-70.34 94.65 -69.68 96.3 -69 98 C-68.67 96.68 -68.34 95.36 -68 94 C-68.99 93.67 -69.98 93.34 -71 93 Z M116 94 C117 97 117 97 117 97 Z M-43 96 C-42 98 -42 98 -42 98 Z M-44 98 C-46.67884959 102.9935837 -49.34517415 107.99360496 -52 113 C-52.70382813 114.32257813 -52.70382813 114.32257813 -53.421875 115.671875 C-55.48180406 119.62278688 -55.48180406 119.62278688 -56 124 C-55.34 124 -54.68 124 -54 124 C-52.12980635 120.23690862 -50.2816544 116.46341175 -48.4375 112.6875 C-47.90447266 111.61564453 -47.37144531 110.54378906 -46.82226562 109.43945312 C-46.32275391 108.41142578 -45.82324219 107.38339844 -45.30859375 106.32421875 C-44.60947876 104.9024231 -44.60947876 104.9024231 -43.89624023 103.4519043 C-42.68146954 100.91775437 -42.68146954 100.91775437 -44 98 Z M115 98 C113.89771304 102.40914783 113.92345464 106.48382401 114 111 C114.33 111 114.66 111 115 111 C115.33 106.71 115.66 102.42 116 98 C115.67 98 115.34 98 115 98 Z M-68 100 C-67.67 103.63 -67.34 107.26 -67 111 C-66.67 111 -66.34 111 -66 111 C-65.82299645 106.39790775 -65.89185433 104.21629134 -68 100 Z M19 102 C19 102.33 19 102.66 19 103 C22.3 103 25.6 103 29 103 C29 102.67 29 102.34 29 102 C25.7 102 22.4 102 19 102 Z M17 103 C16.67 103.66 16.34 104.32 16 105 C16.66 105 17.32 105 18 105 C17.67 104.34 17.34 103.68 17 103 Z M29 103 C29.33 103.66 29.66 104.32 30 105 C30.66 104.67 31.32 104.34 32 104 C31.01 103.67 30.02 103.34 29 103 Z M15 105 C16 107 16 107 16 107 Z M32 105 C33 107 33 107 33 107 Z M64 106 C62.70768774 108.41632339 61.41612809 110.83304396 60.125 113.25 C59.76019531 113.93191406 59.39539063 114.61382812 59.01953125 115.31640625 C58.31556113 116.6347503 57.6139741 117.95437027 56.91503906 119.27539062 C56.20091601 120.62132586 55.47401952 121.9604861 54.7421875 123.296875 C53.8002526 125.14873187 53.8002526 125.14873187 54 128 C52.68 127.67 51.36 127.34 50 127 C51.32 128.32 52.64 129.64 54 131 C56.08042401 126.86106939 58.07661336 122.68492748 60.0625 118.5 C60.42666016 117.74074219 60.79082031 116.98148438 61.16601562 116.19921875 C61.51470703 115.46316406 61.86339844 114.72710937 62.22265625 113.96875 C62.53984619 113.30294922 62.85703613 112.63714844 63.18383789 111.95117188 C64.00573502 109.98628947 64.53904357 108.07647417 65 106 C64.67 106 64.34 106 64 106 Z M14 107 C15 109 15 109 15 109 Z M33 107 C34 109 34 109 34 109 Z M13 109 C12.67 110.65 12.34 112.3 12 114 C12.66 113.34 13.32 112.68 14 112 C13.67 111.01 13.34 110.02 13 109 Z M34 109 C34.33 110.65 34.66 112.3 35 114 C35.33 113.01 35.66 112.02 36 111 C35.34 110.34 34.68 109.68 34 109 Z M-66 112 C-65.67 114.31 -65.34 116.62 -65 119 C-64.30840599 117.15274948 -64.30840599 117.15274948 -64 115 C-64.66 114.01 -65.32 113.02 -66 112 Z M113 112 C114 115 114 115 114 115 Z M11 114 C12 116 12 116 12 116 Z M36 114 C37 117 37 117 37 117 Z M10 116 C11 118 11 118 11 118 Z M112 116 C113 119 113 119 113 119 Z M37 117 C38 119 38 119 38 119 Z M9 119 C8.34 120.65 7.68 122.3 7 124 C7.66 124 8.32 124 9 124 C9.33 122.35 9.66 120.7 10 119 C9.67 119 9.34 119 9 119 Z M38 119 C39 121 39 121 39 121 Z M-64 120 C-63.34 121.32 -62.68 122.64 -62 124 C-62.33 122.68 -62.66 121.36 -63 120 C-63.33 120 -63.66 120 -64 120 Z M111 120 C110.67 121.32 110.34 122.64 110 124 C110.66 122.68 111.32 121.36 112 120 C111.67 120 111.34 120 111 120 Z M39 121 C39.63166153 123.91736458 40.56692122 126.35193837 41.9375 129 C42.27652344 129.66 42.61554688 130.32 42.96484375 131 C43.30644531 131.66 43.64804687 132.32 44 133 C44.66851659 134.33240677 45.33571747 135.66547726 46 137 C46 135.68 46 134.36 46 133 C46.66 132.67 47.32 132.34 48 132 C47.34 132 46.68 132 46 132 C45.62875 130.948125 45.62875 130.948125 45.25 129.875 C43.83440046 126.61912106 42.07362202 123.87631441 40 121 C39.67 121 39.34 121 39 121 Z M-62 124 C-61.67 124.99 -61.34 125.98 -61 127 C-61 126.01 -61 125.02 -61 124 C-61.33 124 -61.66 124 -62 124 Z M6 124 C4.02 126.97 2.04 129.94 0 133 C0.99 133.33 1.98 133.66 3 134 C3.680625 132.906875 4.36125 131.81375 5.0625 130.6875 C5.44535156 130.07261719 5.82820313 129.45773437 6.22265625 128.82421875 C7.31112074 126.82866925 7.31112074 126.82866925 6 124 Z M109 124 C109 127 109 127 109 127 Z M-60 127 C-60 127.66 -60 128.32 -60 129 C-59.34 128.67 -58.68 128.34 -58 128 C-58.66 127.67 -59.32 127.34 -60 127 Z M107 127 C106.67 127.66 106.34 128.32 106 129 C106.66 129 107.32 129 108 129 C107.67 128.34 107.34 127.68 107 127 Z M-58 129 C-58 129.66 -58 130.32 -58 131 C-57.01 131.33 -56.02 131.66 -55 132 C-55 131.34 -55 130.68 -55 130 C-55.99 129.67 -56.98 129.34 -58 129 Z M105 129 C104.01 129.495 104.01 129.495 103 130 C103.33 130.66 103.66 131.32 104 132 C104.66 131.67 105.32 131.34 106 131 C105.67 130.34 105.34 129.68 105 129 Z M-51 134 C-50.0409375 134.4640625 -50.0409375 134.4640625 -49.0625 134.9375 C-47 136 -47 136 -46 137 C-35.25830861 139.89687346 -24.01244369 139.20118292 -13 139 C-12.505 140.485 -12.505 140.485 -12 142 C-11.67 140.68 -11.34 139.36 -11 138 C-9.906875 137.896875 -8.81375 137.79375 -7.6875 137.6875 C-4.14440371 137.02692273 -3.06756277 136.7972908 -1 134 C-3.57683621 134.63248324 -6.11832823 135.31884252 -8.671875 136.046875 C-13.22312516 137.17942476 -17.57786073 137.30371914 -22.25 137.25 C-23.49571777 137.24311157 -23.49571777 137.24311157 -24.76660156 137.23608398 C-31.33022195 137.13986004 -37.57230165 136.33232355 -44 135 C-46.33026663 134.63689338 -48.66317869 134.31865745 -51 134 Z M49 134 C51.69104004 137.32422593 55.13359286 138.38313883 59 140 C59.66 140.66 60.32 141.32 61 142 C61 141.01 61 140.02 61 139 C61.60884033 139.01047363 62.21768066 139.02094727 62.8449707 139.03173828 C81.30127052 139.55031759 81.30127052 139.55031759 99 135 C99 134.67 99 134.34 99 134 C94.3689071 134.6096835 94.3689071 134.6096835 89.7890625 135.51171875 C83.48116158 136.91458 77.31325234 137.24555213 70.875 137.3125 C70.04009033 137.32998291 69.20518066 137.34746582 68.3449707 137.36547852 C63.08481848 137.36081388 58.82447055 136.54751005 53.91455078 134.64526367 C51.86291393 133.84031003 51.86291393 133.84031003 49 134 Z M2 135 C3 137 3 137 3 137 Z M61 143 C62 145 62 145 62 145 Z M-15 145 C-14 147 -14 147 -14 147 Z M62 145 C63 148 63 148 63 148 Z M-16 149 C-15 151 -15 151 -15 151 Z M-0.0625 158.6875 C-1.51961151 163.83596065 -0.70496972 168.75094835 0 174 C0.33 173.34 0.66 172.68 1 172 C1.763125 172.103125 2.52625 172.20625 3.3125 172.3125 C4.199375 172.209375 5.08625 172.10625 6 172 C6.474375 171.175 6.94875 170.35 7.4375 169.5 C8.2109375 168.2625 8.2109375 168.2625 9 167 C12.18506522 166.4691558 14.03740382 166.40252651 16.8125 168.125 C18.42228269 170.66676215 18.67109009 173.0398108 19 176 C18.34 176 17.68 176 17 176 C16.87625 175.21625 16.7525 174.4325 16.625 173.625 C16.20882007 170.85942178 16.20882007 170.85942178 14 169 C12.68 169 11.36 169 10 169 C9.67 170.98 9.34 172.96 9 175 C6.69 175 4.38 175 2 175 C2 175.99 2 176.98 2 178 C2.66 178 3.32 178 4 178 C4.309375 178.8353125 4.309375 178.8353125 4.625 179.6875 C8.46794491 186.15063463 15.44038224 188.9535372 22 192 C22 194.31 22 196.62 22 199 C20.96875 198.896875 19.9375 198.79375 18.875 198.6875 C13.3121473 198.63792021 8.5514406 200.84643575 3.46484375 202.90625 C-1.49214835 204.47102766 -5.339474 204.73063144 -10.125 202.625 C-15.49378641 197.72306459 -18.54753251 191.08484234 -19.015625 183.81640625 C-18.96209095 174.16689381 -18.2806352 164.56135263 -17 155 C-19.72792163 157.72792163 -19.96182402 160.64635112 -20.625 164.3125 C-20.75471191 165.02946045 -20.88442383 165.7464209 -21.01806641 166.48510742 C-22.81734364 177.1215949 -23.86802447 189.61403184 -17.640625 199.0625 C-16.17273837 200.81791082 -14.65014269 202.41602845 -13 204 C-8 209 -8 209 -7 211 C-6.34 211 -5.68 211 -5 211 C-4.71125 211.61875 -4.4225 212.2375 -4.125 212.875 C-3.06279958 215.13325765 -3.06279958 215.13325765 -1 217 C-0.01 217 0.98 217 2 217 C2 217.66 2 218.32 2 219 C3.74906531 219.64836042 5.49929219 220.29358784 7.25 220.9375 C8.71179688 221.47697266 8.71179688 221.47697266 10.203125 222.02734375 C20.38055059 225.56669986 31.01070738 224.87108693 41 221 C42.546875 220.4121875 42.546875 220.4121875 44.125 219.8125 C44.74375 219.544375 45.3625 219.27625 46 219 C46 218.34 46 217.68 46 217 C47.11568359 216.65388672 47.11568359 216.65388672 48.25390625 216.30078125 C51.53527152 214.74645033 52.802887 213.0991296 54.9375 210.1875 C57.20049912 207.19573846 59.15101835 204.68079126 62.25 202.5625 C68.18320536 197.03383137 69.65380649 188.39371303 70.109375 180.53515625 C69.71087283 167.14562236 69.71087283 167.14562236 65 155 C65.15855469 156.22847656 65.31710937 157.45695313 65.48046875 158.72265625 C66.13049148 164.62597099 66.25896758 170.50253877 66.3125 176.4375 C66.35600586 178.03948242 66.35600586 178.03948242 66.40039062 179.67382812 C66.46010935 187.19379359 65.72027211 194.86418769 60.4699707 200.70092773 C57.09207672 203.68610858 54.02232756 204.48347809 49.47265625 204.3984375 C45.12690171 203.69817374 41.19616795 201.84939575 37.14453125 200.1796875 C33.33308929 198.74980493 30.04320652 198.23783568 26 198 C25.505 194.535 25.505 194.535 25 191 C26.3921875 190.7525 26.3921875 190.7525 27.8125 190.5 C33.60508063 188.870465 38.52578392 184.90913343 43 181 C43.495 179.515 43.495 179.515 44 178 C44.66 178 45.32 178 46 178 C48.57006723 172.07071626 50.22854743 165.74820719 48.15625 159.42578125 C45.75035335 154.76050088 43.06093538 150.91970574 38 149 C33.36837885 148.33627977 28.79800537 148.30526625 24.125 148.3125 C22.88363281 148.27189453 21.64226562 148.23128906 20.36328125 148.18945312 C10.29687575 148.15193191 5.93196114 150.87653549 -0.0625 158.6875 Z M63 149 C64 151 64 151 64 151 Z M-17 151 C-16 154 -16 154 -16 154 Z M64 151 C65 154 65 154 65 154 Z M41 236 C42 238 42 238 42 238 Z " fill="#F5F4F1" transform="translate(226,139)"/>
<path d="M0 0 C1.90038267 0.04848994 3.80077334 0.09666719 5.70117188 0.14453125 C10.23838063 0.25945802 14.77546353 0.37846935 19.3125 0.5 C19.3125 0.83 19.3125 1.16 19.3125 1.5 C4.28645905 2.10887934 -10.69617763 2.57683051 -25.73583984 2.48046875 C-35.74856664 2.44148976 -45.69060236 2.940733 -55.6875 3.5 C-41.8275 3.83 -27.9675 4.16 -13.6875 4.5 C-13.6875 4.83 -13.6875 5.16 -13.6875 5.5 C-32.4975 5.5 -51.3075 5.5 -70.6875 5.5 C-71.0175 6.82 -71.3475 8.14 -71.6875 9.5 C-72.35753174 11.06524657 -73.06737698 12.61373475 -73.8046875 14.1484375 C-74.24184082 15.06141602 -74.67899414 15.97439453 -75.12939453 16.91503906 C-75.83878174 18.38021973 -75.83878174 18.38021973 -76.5625 19.875 C-77.04702637 20.88272461 -77.53155273 21.89044922 -78.03076172 22.92871094 C-82.01686493 31.18848166 -86.10180393 39.39787608 -90.24560547 47.57958984 C-90.68275879 48.44535645 -91.11991211 49.31112305 -91.5703125 50.203125 C-91.95590332 50.96270508 -92.34149414 51.72228516 -92.73876953 52.50488281 C-93.79740185 54.62666612 -93.79740185 54.62666612 -94.6875 57.5 C-95.3475 57.5 -96.0075 57.5 -96.6875 57.5 C-97.0175 59.15 -97.3475 60.8 -97.6875 62.5 C-87.7869572 63.86559211 -77.55115781 64.37879196 -67.6875 62.5 C-67.6875 61.84 -67.6875 61.18 -67.6875 60.5 C-66.6975 60.5 -65.7075 60.5 -64.6875 60.5 C-64.6875 59.84 -64.6875 59.18 -64.6875 58.5 C-64.0275 58.5 -63.3675 58.5 -62.6875 58.5 C-62.460625 57.860625 -62.23375 57.22125 -62 56.5625 C-60.51666163 53.10137713 -58.70587527 49.93205499 -56.80859375 46.68359375 C-55.74305824 44.60821274 -55.14714015 42.77754277 -54.6875 40.5 C-54.0275 40.5 -53.3675 40.5 -52.6875 40.5 C-52.625625 39.613125 -52.56375 38.72625 -52.5 37.8125 C-51.4448957 33.51092095 -50.25910037 32.12403292 -46.6875 29.5 C-40.30369951 27.1855981 -34.99158803 27.04247416 -28.6875 29.5 C-24.08831206 32.84486396 -22.56639615 36.769212 -20.65625 41.9296875 C-19.74994043 44.33433143 -18.7498643 46.6281195 -17.625 48.9375 C-17.17447266 49.86369141 -17.17447266 49.86369141 -16.71484375 50.80859375 C-15.58419275 52.6700838 -14.28052417 54.02430906 -12.6875 55.5 C-12.3575 54.18 -12.0275 52.86 -11.6875 51.5 C-11.0275 51.5 -10.3675 51.5 -9.6875 51.5 C-9.59210938 50.65308594 -9.49671875 49.80617188 -9.3984375 48.93359375 C-8.6039694 45.09657472 -7.12880127 41.98934967 -5.3125 38.5625 C-4.59418822 37.16908317 -3.87818993 35.77447218 -3.1640625 34.37890625 C-2.77250977 33.61465332 -2.38095703 32.85040039 -1.97753906 32.06298828 C0.53059386 27.07994903 2.9145111 22.03671007 5.3125 17 C5.80540527 15.96625244 6.29831055 14.93250488 6.80615234 13.86743164 C7.9761733 11.4122074 9.14499054 8.95641925 10.3125 6.5 C8.3325 5.51 8.3325 5.51 6.3125 4.5 C15.8825 4.5 25.4525 4.5 35.3125 4.5 C35.3125 4.83 35.3125 5.16 35.3125 5.5 C34.56226563 5.52835938 33.81203125 5.55671875 33.0390625 5.5859375 C30.02468511 6.28410332 30.02468511 6.28410332 28.3984375 9.4140625 C27.80952289 10.64229432 27.2397607 11.87985666 26.6875 13.125 C26.40132812 13.72957031 26.11515625 14.33414063 25.8203125 14.95703125 C24.41825014 17.94597328 23.11484299 20.96709472 21.828125 24.0078125 C20.24321584 27.65963927 18.49416164 31.20515209 16.6875 34.75 C13.47897778 41.1068084 10.36582292 47.50471205 7.3125 53.9375 C6.91466309 54.77249023 6.51682617 55.60748047 6.10693359 56.46777344 C5.74164551 57.24024414 5.37635742 58.01271484 5 58.80859375 C4.67386719 59.49751709 4.34773437 60.18644043 4.01171875 60.89624023 C3.2458909 62.36118468 3.2458909 62.36118468 3.3125 63.5 C6.2825 63.995 6.2825 63.995 9.3125 64.5 C9.395 63.70207031 9.4775 62.90414062 9.5625 62.08203125 C10.53222921 57.45056412 12.33837432 53.47115905 14.3125 49.1875 C14.71331787 48.30739258 15.11413574 47.42728516 15.52709961 46.52050781 C18.79974567 39.42178638 22.37603487 32.51783838 26.09375 25.64453125 C29.67121324 19.01766118 32.97776686 12.25124447 36.3125 5.5 C37.9625 5.83 39.6125 6.16 41.3125 6.5 C36.21380979 20.36986357 29.42033533 33.61576403 22.42724609 46.609375 C19.46759719 52.1301824 16.78670607 57.74343009 14.3125 63.5 C28.43881437 62.41249837 28.43881437 62.41249837 40.3125 55.5 C40.9725 55.5 41.6325 55.5 42.3125 55.5 C44.56746388 48.56974434 46.15010783 41.69315625 47.3125 34.5 C47.6425 34.5 47.9725 34.5 48.3125 34.5 C48.6425 36.81 48.9725 39.12 49.3125 41.5 C50.3025 40.18 51.2925 38.86 52.3125 37.5 C52.5361337 38.91433206 52.74076476 40.33167618 52.9375 41.75 C53.05351562 42.53890625 53.16953125 43.3278125 53.2890625 44.140625 C53.31601634 46.85397779 52.68345578 48.19206005 51.3125 50.5 C50.9825 51.16 50.6525 51.82 50.3125 52.5 C49.33498365 53.84990354 48.33050576 55.18036291 47.3125 56.5 C46.631875 57.4075 45.95125 58.315 45.25 59.25 C44.2909375 60.36375 44.2909375 60.36375 43.3125 61.5 C42.6525 61.5 41.9925 61.5 41.3125 61.5 C41.3125 62.16 41.3125 62.82 41.3125 63.5 C25.87316828 69.65184204 6.88808004 73.1488367 -9.203125 67.15625 C-9.69296875 66.9396875 -10.1828125 66.723125 -10.6875 66.5 C-10.14480469 66.76554687 -9.60210937 67.03109375 -9.04296875 67.3046875 C-8.32753906 67.65789062 -7.61210937 68.01109375 -6.875 68.375 C-6.16730469 68.72304688 -5.45960938 69.07109375 -4.73046875 69.4296875 C-2.6875 70.5 -2.6875 70.5 0.3125 72.5 C0.3125 73.49 0.3125 74.48 0.3125 75.5 C0.9725 75.5 1.6325 75.5 2.3125 75.5 C2.3125 78.8 2.3125 82.1 2.3125 85.5 C2.9725 85.83 3.6325 86.16 4.3125 86.5 C5.45017056 93.61227592 5.56013137 100.74573151 5.625 107.9375 C5.65400391 109.00548828 5.68300781 110.07347656 5.71289062 111.17382812 C5.7777885 119.34596847 4.52515047 126.48418691 -0.6875 133 C-4.50846943 135.86572707 -7.2880287 136.9905275 -12.21484375 136.8984375 C-16.56059829 136.19817374 -20.49133205 134.34939575 -24.54296875 132.6796875 C-28.35441071 131.24980493 -31.64429348 130.73783568 -35.6875 130.5 C-36.3475 128.52 -37.0075 126.54 -37.6875 124.5 C-35.35510811 121.87131077 -33.055455 120.58087648 -29.875 119.125 C-25.16456669 116.84553593 -20.12416899 114.37333799 -17.6875 109.5 C-17.0275 109.5 -16.3675 109.5 -15.6875 109.5 C-13.14188199 99.23410332 -13.14188199 99.23410332 -15.625 89.4375 C-16.305625 88.468125 -16.98625 87.49875 -17.6875 86.5 C-17.6875 85.84 -17.6875 85.18 -17.6875 84.5 C-18.30625 84.190625 -18.925 83.88125 -19.5625 83.5625 C-20.9375 82.875 -22.3125 82.1875 -23.6875 81.5 C-28.24308499 81.14600335 -32.80747589 81.12882859 -37.375 81.0625 C-38.64279297 81.01673828 -39.91058594 80.97097656 -41.21679688 80.92382812 C-49.17650028 80.70661436 -49.17650028 80.70661436 -55.95703125 84.35546875 C-59.31803788 87.87654925 -61.73562822 91.0343542 -61.63671875 96.1015625 C-61.40208269 98.58800435 -61.09168346 101.03594179 -60.6875 103.5 C-59.0375 103.5 -57.3875 103.5 -55.6875 103.5 C-55.378125 102.695625 -55.06875 101.89125 -54.75 101.0625 C-53.6875 98.5 -53.6875 98.5 -52.6875 97.5 C-49.12450935 97.10411215 -47.31110205 97.07332492 -44.3125 99.125 C-42.2743808 102.1037896 -42.36597485 103.96322336 -42.6875 107.5 C-43.3475 107.5 -44.0075 107.5 -44.6875 107.5 C-45.1 106.530625 -45.5125 105.56125 -45.9375 104.5625 C-47.33649168 101.37739901 -47.33649168 101.37739901 -49.875 100.625 C-50.473125 100.58375 -51.07125 100.5425 -51.6875 100.5 C-52.0175 102.48 -52.3475 104.46 -52.6875 106.5 C-57.4375 107.625 -57.4375 107.625 -59.6875 106.5 C-59.6875 107.49 -59.6875 108.48 -59.6875 109.5 C-59.0275 109.5 -58.3675 109.5 -57.6875 109.5 C-57.089375 110.345625 -56.49125 111.19125 -55.875 112.0625 C-52.40634876 116.49056541 -47.35955311 118.59031383 -42.453125 121.08203125 C-39.6875 122.5 -39.6875 122.5 -38.6875 123.5 C-38.97480055 125.83944736 -39.30686779 128.1739143 -39.6875 130.5 C-40.27015625 130.59796875 -40.8528125 130.6959375 -41.453125 130.796875 C-46.43825053 131.70611173 -51.09668974 132.92577744 -55.875 134.625 C-60.3306876 136.14255813 -63.94126605 137.25939743 -68.6875 136.5 C-74.35045267 133.61300452 -77.02544525 129.73663294 -79.875 124.1875 C-82.79343867 114.53420287 -81.41562645 104.39833243 -80.6875 94.5 C-80.61402344 93.42878906 -80.54054687 92.35757813 -80.46484375 91.25390625 C-80.12433061 87.08726362 -79.64101941 84.22317816 -77.6875 80.5 C-77.5225 79.675 -77.3575 78.85 -77.1875 78 C-76.3979405 74.05220248 -75.6175885 72.14390742 -72.25 69.8125 C-69.6875 68.5 -69.6875 68.5 -66.6875 67.5 C-67.81671875 67.82484375 -68.9459375 68.1496875 -70.109375 68.484375 C-74.75873474 69.6416035 -79.16428292 69.80631542 -83.9375 69.75 C-84.77087891 69.74323242 -85.60425781 69.73646484 -86.46289062 69.72949219 C-97.27714688 69.54939419 -106.65681147 67.56756267 -116.6875 63.5 C-116.6875 62.84 -116.6875 62.18 -116.6875 61.5 C-117.55375 61.2215625 -117.55375 61.2215625 -118.4375 60.9375 C-121.79177843 58.79448878 -122.86657996 56.01177437 -124.6875 52.5 C-125.6775 52.995 -125.6775 52.995 -126.6875 53.5 C-126.6875 51.19 -126.6875 48.88 -126.6875 46.5 C-127.3475 46.5 -128.0075 46.5 -128.6875 46.5 C-128.6875 42.87 -128.6875 39.24 -128.6875 35.5 C-129.3475 36.16 -130.0075 36.82 -130.6875 37.5 C-130.61789063 36.25283203 -130.61789063 36.25283203 -130.546875 34.98046875 C-130.51078125 33.89378906 -130.4746875 32.80710938 -130.4375 31.6875 C-130.36789063 30.06908203 -130.36789063 30.06908203 -130.296875 28.41796875 C-130.42578125 27.45503906 -130.5546875 26.49210937 -130.6875 25.5 C-131.3475 25.025625 -132.0075 24.55125 -132.6875 24.0625 C-133.3475 23.546875 -134.0075 23.03125 -134.6875 22.5 C-135.078125 19.14453125 -135.078125 19.14453125 -134.9375 15.3125 C-134.90140625 14.04019531 -134.8653125 12.76789063 -134.828125 11.45703125 C-134.78171875 10.48121094 -134.7353125 9.50539062 -134.6875 8.5 C-133.52734375 8.55607422 -133.52734375 8.55607422 -132.34375 8.61328125 C-128.70198445 8.45797066 -127.3904519 6.86508291 -124.6875 4.5 C-119.5289971 1.10293712 -115.74411263 0.3828853 -109.60327148 0.29467773 C-108.36935165 0.27473251 -107.13543182 0.25478729 -105.86412048 0.23423767 C-104.51228013 0.21720529 -103.16043782 0.20032847 -101.80859375 0.18359375 C-100.39925117 0.16295596 -98.98991383 0.14195809 -97.58058167 0.12062073 C-94.61063841 0.07663126 -91.64067437 0.03576312 -88.6706543 -0.00268555 C-84.95058839 -0.05090364 -81.23063341 -0.10471502 -77.51067638 -0.16064644 C-51.66538302 -0.54767949 -25.84199798 -0.69471497 0 0 Z M-119.6875 9.5 C-125.22491811 16.88322415 -124.31546468 26.68911291 -123.6875 35.5 C-123.04748749 39.91943278 -121.93902041 44.2165224 -120.6875 48.5 C-119.08141367 45.36046442 -117.60327525 42.16638608 -116.12353516 38.96582031 C-112.5317344 31.22017663 -108.73021254 23.62700672 -104.65795898 16.12231445 C-102.77731478 12.64175072 -101.05826507 9.22270934 -99.6875 5.5 C-110.44211051 4.79240436 -110.44211051 4.79240436 -119.6875 9.5 Z M-94.6875 5.5 C-95.375563 7.11694804 -96.06336451 8.73400775 -96.75 10.3515625 C-97.41561325 11.87692619 -98.10575267 13.39169147 -98.8125 14.8984375 C-99.18375 15.69507813 -99.555 16.49171875 -99.9375 17.3125 C-100.29328125 18.06144531 -100.6490625 18.81039062 -101.015625 19.58203125 C-101.23734375 20.21496094 -101.4590625 20.84789062 -101.6875 21.5 C-101.3575 22.16 -101.0275 22.82 -100.6875 23.5 C-100.3575 22.18 -100.0275 20.86 -99.6875 19.5 C-99.0275 19.5 -98.3675 19.5 -97.6875 19.5 C-95.7075 15.21 -93.7275 10.92 -91.6875 6.5 C-92.6775 6.17 -93.6675 5.84 -94.6875 5.5 Z M-81.6875 5.5 C-81.97882813 6.11294922 -82.27015625 6.72589844 -82.5703125 7.35742188 C-92.45850918 28.14440138 -92.45850918 28.14440138 -97 37.25 C-97.31710938 37.88583008 -97.63421875 38.52166016 -97.9609375 39.17675781 C-100.37071944 43.96355269 -102.9544382 48.63805372 -105.65625 53.265625 C-106.96687212 55.69516034 -106.96687212 55.69516034 -106.6875 59.5 C-108.6675 59.995 -108.6675 59.995 -110.6875 60.5 C-107.78149739 61.75664978 -105.89145416 62.5 -102.6875 62.5 C-102.4915625 61.96375 -102.295625 61.4275 -102.09375 60.875 C-99.75093873 54.73521874 -96.94372299 48.88685902 -93.96948242 43.03491211 C-90.82312509 36.82817138 -87.84709223 30.54802262 -84.92114258 24.23461914 C-82.70442788 19.49474799 -80.29442353 14.94805093 -77.62963867 10.44311523 C-76.46935909 8.41000707 -76.46935909 8.41000707 -76.6875 5.5 C-78.3375 5.5 -79.9875 5.5 -81.6875 5.5 Z M17.3125 5.5 C16.99498779 6.16531738 16.67747559 6.83063477 16.3503418 7.51611328 C14.90079496 10.55267994 13.45040504 13.58884317 12 16.625 C11.50048828 17.67171875 11.00097656 18.7184375 10.48632812 19.796875 C9.75639648 21.32441406 9.75639648 21.32441406 9.01171875 22.8828125 C8.54427246 23.86540039 8.07682617 24.84798828 7.59521484 25.86035156 C6.57562614 27.95852306 5.50755731 30.00601005 4.39453125 32.0546875 C2.95829946 34.55917102 2.95829946 34.55917102 4.3125 37.5 C4.80878906 36.50742188 5.30507813 35.51484375 5.81640625 34.4921875 C6.14189453 33.84137207 6.46738281 33.19055664 6.80273438 32.52001953 C7.52200447 31.0811518 8.2407482 29.64202083 8.95898438 28.20263672 C10.76134158 24.59235948 12.57055376 20.98606974 14.40234375 17.390625 C14.88562134 16.43760498 14.88562134 16.43760498 15.37866211 15.46533203 C16.27071051 13.70735534 17.16651379 11.95128548 18.0625 10.1953125 C19.45274166 7.69278092 19.45274166 7.69278092 19.3125 5.5 C18.6525 5.5 17.9925 5.5 17.3125 5.5 Z M-102.6875 23.5 C-103.0175 24.82 -103.3475 26.14 -103.6875 27.5 C-103.0275 27.5 -102.3675 27.5 -101.6875 27.5 C-102.0175 26.18 -102.3475 24.86 -102.6875 23.5 Z M-104.6875 27.5 C-103.6875 29.5 -103.6875 29.5 -103.6875 29.5 Z M-105.6875 29.5 C-108.36634959 34.4935837 -111.03267415 39.49360496 -113.6875 44.5 C-114.39132813 45.82257813 -114.39132813 45.82257813 -115.109375 47.171875 C-117.16930406 51.12278688 -117.16930406 51.12278688 -117.6875 55.5 C-117.0275 55.5 -116.3675 55.5 -115.6875 55.5 C-113.81730635 51.73690862 -111.9691544 47.96341175 -110.125 44.1875 C-109.59197266 43.11564453 -109.05894531 42.04378906 -108.50976562 40.93945312 C-108.01025391 39.91142578 -107.51074219 38.88339844 -106.99609375 37.82421875 C-106.29697876 36.4024231 -106.29697876 36.4024231 -105.58374023 34.9519043 C-104.36896954 32.41775437 -104.36896954 32.41775437 -105.6875 29.5 Z M-42.6875 33.5 C-42.6875 33.83 -42.6875 34.16 -42.6875 34.5 C-39.3875 34.5 -36.0875 34.5 -32.6875 34.5 C-32.6875 34.17 -32.6875 33.84 -32.6875 33.5 C-35.9875 33.5 -39.2875 33.5 -42.6875 33.5 Z M-44.6875 34.5 C-45.0175 35.16 -45.3475 35.82 -45.6875 36.5 C-45.0275 36.5 -44.3675 36.5 -43.6875 36.5 C-44.0175 35.84 -44.3475 35.18 -44.6875 34.5 Z M-32.6875 34.5 C-32.3575 35.16 -32.0275 35.82 -31.6875 36.5 C-31.0275 36.17 -30.3675 35.84 -29.6875 35.5 C-30.6775 35.17 -31.6675 34.84 -32.6875 34.5 Z M-46.6875 36.5 C-45.6875 38.5 -45.6875 38.5 -45.6875 38.5 Z M-29.6875 36.5 C-28.6875 38.5 -28.6875 38.5 -28.6875 38.5 Z M2.3125 37.5 C1.02018774 39.91632339 -0.27137191 42.33304396 -1.5625 44.75 C-1.92730469 45.43191406 -2.29210937 46.11382812 -2.66796875 46.81640625 C-3.37193887 48.1347503 -4.0735259 49.45437027 -4.77246094 50.77539062 C-5.48658399 52.12132586 -6.21348048 53.4604861 -6.9453125 54.796875 C-7.8872474 56.64873187 -7.8872474 56.64873187 -7.6875 59.5 C-9.0075 59.17 -10.3275 58.84 -11.6875 58.5 C-10.3675 59.82 -9.0475 61.14 -7.6875 62.5 C-5.60707599 58.36106939 -3.61088664 54.18492748 -1.625 50 C-1.26083984 49.24074219 -0.89667969 48.48148438 -0.52148438 47.69921875 C-0.17279297 46.96316406 0.17589844 46.22710937 0.53515625 45.46875 C0.85234619 44.80294922 1.16953613 44.13714844 1.49633789 43.45117188 C2.31823502 41.48628947 2.85154357 39.57647417 3.3125 37.5 C2.9825 37.5 2.6525 37.5 2.3125 37.5 Z M-47.6875 38.5 C-46.6875 40.5 -46.6875 40.5 -46.6875 40.5 Z M-28.6875 38.5 C-27.6875 40.5 -27.6875 40.5 -27.6875 40.5 Z M-48.6875 40.5 C-49.0175 42.15 -49.3475 43.8 -49.6875 45.5 C-49.0275 44.84 -48.3675 44.18 -47.6875 43.5 C-48.0175 42.51 -48.3475 41.52 -48.6875 40.5 Z M-27.6875 40.5 C-27.3575 42.15 -27.0275 43.8 -26.6875 45.5 C-26.3575 44.51 -26.0275 43.52 -25.6875 42.5 C-26.3475 41.84 -27.0075 41.18 -27.6875 40.5 Z M51.3125 43.5 C52.3125 46.5 52.3125 46.5 52.3125 46.5 Z M-50.6875 45.5 C-49.6875 47.5 -49.6875 47.5 -49.6875 47.5 Z M-25.6875 45.5 C-24.6875 48.5 -24.6875 48.5 -24.6875 48.5 Z M-51.6875 47.5 C-50.6875 49.5 -50.6875 49.5 -50.6875 49.5 Z M-24.6875 48.5 C-23.6875 50.5 -23.6875 50.5 -23.6875 50.5 Z M-52.6875 50.5 C-53.3475 52.15 -54.0075 53.8 -54.6875 55.5 C-54.0275 55.5 -53.3675 55.5 -52.6875 55.5 C-52.3575 53.85 -52.0275 52.2 -51.6875 50.5 C-52.0175 50.5 -52.3475 50.5 -52.6875 50.5 Z M-23.6875 50.5 C-22.6875 52.5 -22.6875 52.5 -22.6875 52.5 Z M-22.6875 52.5 C-22.05583847 55.41736458 -21.12057878 57.85193837 -19.75 60.5 C-19.41097656 61.16 -19.07195312 61.82 -18.72265625 62.5 C-18.38105469 63.16 -18.03945313 63.82 -17.6875 64.5 C-17.01898341 65.83240677 -16.35178253 67.16547726 -15.6875 68.5 C-15.6875 67.18 -15.6875 65.86 -15.6875 64.5 C-15.0275 64.17 -14.3675 63.84 -13.6875 63.5 C-14.3475 63.5 -15.0075 63.5 -15.6875 63.5 C-16.05875 62.448125 -16.05875 62.448125 -16.4375 61.375 C-17.85309954 58.11912106 -19.61387798 55.37631441 -21.6875 52.5 C-22.0175 52.5 -22.3475 52.5 -22.6875 52.5 Z M-55.6875 55.5 C-57.6675 58.47 -59.6475 61.44 -61.6875 64.5 C-60.6975 64.83 -59.7075 65.16 -58.6875 65.5 C-58.006875 64.406875 -57.32625 63.31375 -56.625 62.1875 C-56.24214844 61.57261719 -55.85929687 60.95773437 -55.46484375 60.32421875 C-54.37637926 58.32866925 -54.37637926 58.32866925 -55.6875 55.5 Z M-59.6875 66.5 C-58.6875 68.5 -58.6875 68.5 -58.6875 68.5 Z M-76.6875 76.5 C-75.6875 78.5 -75.6875 78.5 -75.6875 78.5 Z M0.3125 76.5 C1.3125 79.5 1.3125 79.5 1.3125 79.5 Z " fill="#F1F0ED" transform="translate(287.6875,207.5)"/>
<path d="M0 0 C1.90038267 0.04848994 3.80077334 0.09666719 5.70117188 0.14453125 C10.23838063 0.25945802 14.77546353 0.37846935 19.3125 0.5 C19.3125 0.83 19.3125 1.16 19.3125 1.5 C4.28645905 2.10887934 -10.69617763 2.57683051 -25.73583984 2.48046875 C-35.74856664 2.44148976 -45.69060236 2.940733 -55.6875 3.5 C-41.8275 3.83 -27.9675 4.16 -13.6875 4.5 C-13.6875 4.83 -13.6875 5.16 -13.6875 5.5 C-32.4975 5.5 -51.3075 5.5 -70.6875 5.5 C-71.0175 6.82 -71.3475 8.14 -71.6875 9.5 C-72.35753174 11.06524657 -73.06737698 12.61373475 -73.8046875 14.1484375 C-74.24184082 15.06141602 -74.67899414 15.97439453 -75.12939453 16.91503906 C-75.83878174 18.38021973 -75.83878174 18.38021973 -76.5625 19.875 C-77.04702637 20.88272461 -77.53155273 21.89044922 -78.03076172 22.92871094 C-82.01686493 31.18848166 -86.10180393 39.39787608 -90.24560547 47.57958984 C-90.68275879 48.44535645 -91.11991211 49.31112305 -91.5703125 50.203125 C-91.95590332 50.96270508 -92.34149414 51.72228516 -92.73876953 52.50488281 C-93.79740185 54.62666612 -93.79740185 54.62666612 -94.6875 57.5 C-95.3475 57.5 -96.0075 57.5 -96.6875 57.5 C-97.0175 59.15 -97.3475 60.8 -97.6875 62.5 C-87.7869572 63.86559211 -77.55115781 64.37879196 -67.6875 62.5 C-67.6875 61.84 -67.6875 61.18 -67.6875 60.5 C-66.6975 60.5 -65.7075 60.5 -64.6875 60.5 C-64.6875 59.84 -64.6875 59.18 -64.6875 58.5 C-64.0275 58.5 -63.3675 58.5 -62.6875 58.5 C-62.460625 57.860625 -62.23375 57.22125 -62 56.5625 C-60.51666163 53.10137713 -58.70587527 49.93205499 -56.80859375 46.68359375 C-55.74305824 44.60821274 -55.14714015 42.77754277 -54.6875 40.5 C-54.0275 40.5 -53.3675 40.5 -52.6875 40.5 C-52.625625 39.613125 -52.56375 38.72625 -52.5 37.8125 C-51.4448957 33.51092095 -50.25910037 32.12403292 -46.6875 29.5 C-40.30369951 27.1855981 -34.99158803 27.04247416 -28.6875 29.5 C-24.08831206 32.84486396 -22.56639615 36.769212 -20.65625 41.9296875 C-19.74994043 44.33433143 -18.7498643 46.6281195 -17.625 48.9375 C-17.17447266 49.86369141 -17.17447266 49.86369141 -16.71484375 50.80859375 C-15.58419275 52.6700838 -14.28052417 54.02430906 -12.6875 55.5 C-12.3575 54.18 -12.0275 52.86 -11.6875 51.5 C-11.0275 51.5 -10.3675 51.5 -9.6875 51.5 C-9.59210938 50.65308594 -9.49671875 49.80617188 -9.3984375 48.93359375 C-8.6039694 45.09657472 -7.12880127 41.98934967 -5.3125 38.5625 C-4.59418822 37.16908317 -3.87818993 35.77447218 -3.1640625 34.37890625 C-2.77250977 33.61465332 -2.38095703 32.85040039 -1.97753906 32.06298828 C0.53059386 27.07994903 2.9145111 22.03671007 5.3125 17 C5.80540527 15.96625244 6.29831055 14.93250488 6.80615234 13.86743164 C7.9761733 11.4122074 9.14499054 8.95641925 10.3125 6.5 C8.3325 5.51 8.3325 5.51 6.3125 4.5 C15.8825 4.5 25.4525 4.5 35.3125 4.5 C35.3125 4.83 35.3125 5.16 35.3125 5.5 C34.56226563 5.52835938 33.81203125 5.55671875 33.0390625 5.5859375 C30.02468511 6.28410332 30.02468511 6.28410332 28.3984375 9.4140625 C27.80952289 10.64229432 27.2397607 11.87985666 26.6875 13.125 C26.40132812 13.72957031 26.11515625 14.33414063 25.8203125 14.95703125 C24.41825014 17.94597328 23.11484299 20.96709472 21.828125 24.0078125 C20.24321584 27.65963927 18.49416164 31.20515209 16.6875 34.75 C13.47897778 41.1068084 10.36582292 47.50471205 7.3125 53.9375 C6.91466309 54.77249023 6.51682617 55.60748047 6.10693359 56.46777344 C5.74164551 57.24024414 5.37635742 58.01271484 5 58.80859375 C4.67386719 59.49751709 4.34773437 60.18644043 4.01171875 60.89624023 C3.2458909 62.36118468 3.2458909 62.36118468 3.3125 63.5 C6.2825 63.995 6.2825 63.995 9.3125 64.5 C9.395 63.70207031 9.4775 62.90414062 9.5625 62.08203125 C10.53222921 57.45056412 12.33837432 53.47115905 14.3125 49.1875 C14.71331787 48.30739258 15.11413574 47.42728516 15.52709961 46.52050781 C18.79974567 39.42178638 22.37603487 32.51783838 26.09375 25.64453125 C29.67121324 19.01766118 32.97776686 12.25124447 36.3125 5.5 C37.9625 5.83 39.6125 6.16 41.3125 6.5 C36.21380979 20.36986357 29.42033533 33.61576403 22.42724609 46.609375 C19.46759719 52.1301824 16.78670607 57.74343009 14.3125 63.5 C28.43881437 62.41249837 28.43881437 62.41249837 40.3125 55.5 C40.9725 55.5 41.6325 55.5 42.3125 55.5 C44.56746388 48.56974434 46.15010783 41.69315625 47.3125 34.5 C47.6425 34.5 47.9725 34.5 48.3125 34.5 C48.6425 36.81 48.9725 39.12 49.3125 41.5 C50.3025 40.18 51.2925 38.86 52.3125 37.5 C52.5361337 38.91433206 52.74076476 40.33167618 52.9375 41.75 C53.05351562 42.53890625 53.16953125 43.3278125 53.2890625 44.140625 C53.31601634 46.85397779 52.68345578 48.19206005 51.3125 50.5 C50.9825 51.16 50.6525 51.82 50.3125 52.5 C49.33498365 53.84990354 48.33050576 55.18036291 47.3125 56.5 C46.631875 57.4075 45.95125 58.315 45.25 59.25 C44.2909375 60.36375 44.2909375 60.36375 43.3125 61.5 C42.6525 61.5 41.9925 61.5 41.3125 61.5 C41.3125 62.16 41.3125 62.82 41.3125 63.5 C30.5056874 67.8060027 20.78696167 69.66355708 9.1875 69.8125 C8.35226807 69.83022461 7.51703613 69.84794922 6.65649414 69.86621094 C0.69753307 69.85916239 -4.18169977 68.75003615 -9.6875 66.5 C-10.780625 66.06300781 -11.87375 65.62601562 -13 65.17578125 C-16.32884375 63.10009234 -17.69448407 61.0548665 -19.6875 57.6875 C-20.02289795 57.12579102 -20.3582959 56.56408203 -20.70385742 55.98535156 C-23.8159495 50.61819538 -26.14078381 44.98543926 -28.36328125 39.203125 C-28.80027344 38.31109375 -29.23726563 37.4190625 -29.6875 36.5 C-32.97269475 35.40493508 -35.42413415 35.40039392 -38.875 35.4375 C-39.96167969 35.44652344 -41.04835938 35.45554688 -42.16796875 35.46484375 C-42.99941406 35.47644531 -43.83085937 35.48804688 -44.6875 35.5 C-45.69991247 37.38923398 -46.69697425 39.28669944 -47.6875 41.1875 C-48.244375 42.24324219 -48.80125 43.29898438 -49.375 44.38671875 C-50.6547274 47.42226262 -50.97601043 49.26026826 -50.6875 52.5 C-51.3475 52.17 -52.0075 51.84 -52.6875 51.5 C-53.07421875 52.17546875 -53.4609375 52.8509375 -53.859375 53.546875 C-54.38015625 54.43890625 -54.9009375 55.3309375 -55.4375 56.25 C-55.94796875 57.13171875 -56.4584375 58.0134375 -56.984375 58.921875 C-59.62249461 62.91535882 -62.10620864 65.6395246 -66.6875 67.1875 C-67.3475 67.41824219 -68.0075 67.64898437 -68.6875 67.88671875 C-84.12706932 72.62111794 -102.07980354 69.42359345 -116.6875 63.5 C-116.6875 62.84 -116.6875 62.18 -116.6875 61.5 C-117.55375 61.2215625 -117.55375 61.2215625 -118.4375 60.9375 C-121.79177843 58.79448878 -122.86657996 56.01177437 -124.6875 52.5 C-125.6775 52.995 -125.6775 52.995 -126.6875 53.5 C-126.6875 51.19 -126.6875 48.88 -126.6875 46.5 C-127.3475 46.5 -128.0075 46.5 -128.6875 46.5 C-128.6875 42.87 -128.6875 39.24 -128.6875 35.5 C-129.3475 36.16 -130.0075 36.82 -130.6875 37.5 C-130.61789063 36.25283203 -130.61789063 36.25283203 -130.546875 34.98046875 C-130.51078125 33.89378906 -130.4746875 32.80710938 -130.4375 31.6875 C-130.36789063 30.06908203 -130.36789063 30.06908203 -130.296875 28.41796875 C-130.42578125 27.45503906 -130.5546875 26.49210937 -130.6875 25.5 C-131.3475 25.025625 -132.0075 24.55125 -132.6875 24.0625 C-133.3475 23.546875 -134.0075 23.03125 -134.6875 22.5 C-135.078125 19.14453125 -135.078125 19.14453125 -134.9375 15.3125 C-134.90140625 14.04019531 -134.8653125 12.76789063 -134.828125 11.45703125 C-134.78171875 10.48121094 -134.7353125 9.50539062 -134.6875 8.5 C-133.52734375 8.55607422 -133.52734375 8.55607422 -132.34375 8.61328125 C-128.70198445 8.45797066 -127.3904519 6.86508291 -124.6875 4.5 C-119.5289971 1.10293712 -115.74411263 0.3828853 -109.60327148 0.29467773 C-108.36935165 0.27473251 -107.13543182 0.25478729 -105.86412048 0.23423767 C-104.51228013 0.21720529 -103.16043782 0.20032847 -101.80859375 0.18359375 C-100.39925117 0.16295596 -98.98991383 0.14195809 -97.58058167 0.12062073 C-94.61063841 0.07663126 -91.64067437 0.03576312 -88.6706543 -0.00268555 C-84.95058839 -0.05090364 -81.23063341 -0.10471502 -77.51067638 -0.16064644 C-51.66538302 -0.54767949 -25.84199798 -0.69471497 0 0 Z M-119.6875 9.5 C-125.22491811 16.88322415 -124.31546468 26.68911291 -123.6875 35.5 C-123.04748749 39.91943278 -121.93902041 44.2165224 -120.6875 48.5 C-119.08141367 45.36046442 -117.60327525 42.16638608 -116.12353516 38.96582031 C-112.5317344 31.22017663 -108.73021254 23.62700672 -104.65795898 16.12231445 C-102.77731478 12.64175072 -101.05826507 9.22270934 -99.6875 5.5 C-110.44211051 4.79240436 -110.44211051 4.79240436 -119.6875 9.5 Z M-94.6875 5.5 C-95.375563 7.11694804 -96.06336451 8.73400775 -96.75 10.3515625 C-97.41561325 11.87692619 -98.10575267 13.39169147 -98.8125 14.8984375 C-99.18375 15.69507813 -99.555 16.49171875 -99.9375 17.3125 C-100.29328125 18.06144531 -100.6490625 18.81039062 -101.015625 19.58203125 C-101.23734375 20.21496094 -101.4590625 20.84789062 -101.6875 21.5 C-101.3575 22.16 -101.0275 22.82 -100.6875 23.5 C-100.3575 22.18 -100.0275 20.86 -99.6875 19.5 C-99.0275 19.5 -98.3675 19.5 -97.6875 19.5 C-95.7075 15.21 -93.7275 10.92 -91.6875 6.5 C-92.6775 6.17 -93.6675 5.84 -94.6875 5.5 Z M-81.6875 5.5 C-81.97882813 6.11294922 -82.27015625 6.72589844 -82.5703125 7.35742188 C-92.45850918 28.14440138 -92.45850918 28.14440138 -97 37.25 C-97.31710938 37.88583008 -97.63421875 38.52166016 -97.9609375 39.17675781 C-100.37071944 43.96355269 -102.9544382 48.63805372 -105.65625 53.265625 C-106.96687212 55.69516034 -106.96687212 55.69516034 -106.6875 59.5 C-108.6675 59.995 -108.6675 59.995 -110.6875 60.5 C-107.78149739 61.75664978 -105.89145416 62.5 -102.6875 62.5 C-102.4915625 61.96375 -102.295625 61.4275 -102.09375 60.875 C-99.75093873 54.73521874 -96.94372299 48.88685902 -93.96948242 43.03491211 C-90.82312509 36.82817138 -87.84709223 30.54802262 -84.92114258 24.23461914 C-82.70442788 19.49474799 -80.29442353 14.94805093 -77.62963867 10.44311523 C-76.46935909 8.41000707 -76.46935909 8.41000707 -76.6875 5.5 C-78.3375 5.5 -79.9875 5.5 -81.6875 5.5 Z M17.3125 5.5 C16.99498779 6.16531738 16.67747559 6.83063477 16.3503418 7.51611328 C14.90079496 10.55267994 13.45040504 13.58884317 12 16.625 C11.50048828 17.67171875 11.00097656 18.7184375 10.48632812 19.796875 C9.75639648 21.32441406 9.75639648 21.32441406 9.01171875 22.8828125 C8.54427246 23.86540039 8.07682617 24.84798828 7.59521484 25.86035156 C6.57562614 27.95852306 5.50755731 30.00601005 4.39453125 32.0546875 C2.95829946 34.55917102 2.95829946 34.55917102 4.3125 37.5 C4.80878906 36.50742188 5.30507813 35.51484375 5.81640625 34.4921875 C6.14189453 33.84137207 6.46738281 33.19055664 6.80273438 32.52001953 C7.52200447 31.0811518 8.2407482 29.64202083 8.95898438 28.20263672 C10.76134158 24.59235948 12.57055376 20.98606974 14.40234375 17.390625 C14.88562134 16.43760498 14.88562134 16.43760498 15.37866211 15.46533203 C16.27071051 13.70735534 17.16651379 11.95128548 18.0625 10.1953125 C19.45274166 7.69278092 19.45274166 7.69278092 19.3125 5.5 C18.6525 5.5 17.9925 5.5 17.3125 5.5 Z M-102.6875 23.5 C-103.0175 24.82 -103.3475 26.14 -103.6875 27.5 C-103.0275 27.5 -102.3675 27.5 -101.6875 27.5 C-102.0175 26.18 -102.3475 24.86 -102.6875 23.5 Z M-104.6875 27.5 C-103.6875 29.5 -103.6875 29.5 -103.6875 29.5 Z M-105.6875 29.5 C-108.36634959 34.4935837 -111.03267415 39.49360496 -113.6875 44.5 C-114.39132813 45.82257813 -114.39132813 45.82257813 -115.109375 47.171875 C-117.16930406 51.12278688 -117.16930406 51.12278688 -117.6875 55.5 C-117.0275 55.5 -116.3675 55.5 -115.6875 55.5 C-113.81730635 51.73690862 -111.9691544 47.96341175 -110.125 44.1875 C-109.59197266 43.11564453 -109.05894531 42.04378906 -108.50976562 40.93945312 C-108.01025391 39.91142578 -107.51074219 38.88339844 -106.99609375 37.82421875 C-106.29697876 36.4024231 -106.29697876 36.4024231 -105.58374023 34.9519043 C-104.36896954 32.41775437 -104.36896954 32.41775437 -105.6875 29.5 Z M-42.6875 33.5 C-42.6875 33.83 -42.6875 34.16 -42.6875 34.5 C-39.3875 34.5 -36.0875 34.5 -32.6875 34.5 C-32.6875 34.17 -32.6875 33.84 -32.6875 33.5 C-35.9875 33.5 -39.2875 33.5 -42.6875 33.5 Z M2.3125 37.5 C1.02018774 39.91632339 -0.27137191 42.33304396 -1.5625 44.75 C-1.92730469 45.43191406 -2.29210937 46.11382812 -2.66796875 46.81640625 C-3.37193887 48.1347503 -4.0735259 49.45437027 -4.77246094 50.77539062 C-5.48658399 52.12132586 -6.21348048 53.4604861 -6.9453125 54.796875 C-7.8872474 56.64873187 -7.8872474 56.64873187 -7.6875 59.5 C-9.0075 59.17 -10.3275 58.84 -11.6875 58.5 C-10.3675 59.82 -9.0475 61.14 -7.6875 62.5 C-5.60707599 58.36106939 -3.61088664 54.18492748 -1.625 50 C-1.26083984 49.24074219 -0.89667969 48.48148438 -0.52148438 47.69921875 C-0.17279297 46.96316406 0.17589844 46.22710937 0.53515625 45.46875 C0.85234619 44.80294922 1.16953613 44.13714844 1.49633789 43.45117188 C2.31823502 41.48628947 2.85154357 39.57647417 3.3125 37.5 C2.9825 37.5 2.6525 37.5 2.3125 37.5 Z M51.3125 43.5 C52.3125 46.5 52.3125 46.5 52.3125 46.5 Z " fill="#CAC9C7" transform="translate(287.6875,207.5)"/>
<path d="M0 0 C1.90038267 0.04848994 3.80077334 0.09666719 5.70117188 0.14453125 C10.23838063 0.25945802 14.77546353 0.37846935 19.3125 0.5 C19.3125 0.83 19.3125 1.16 19.3125 1.5 C4.28645905 2.10887934 -10.69617763 2.57683051 -25.73583984 2.48046875 C-35.74856664 2.44148976 -45.69060236 2.940733 -55.6875 3.5 C-41.8275 3.83 -27.9675 4.16 -13.6875 4.5 C-13.6875 4.83 -13.6875 5.16 -13.6875 5.5 C-32.4975 5.5 -51.3075 5.5 -70.6875 5.5 C-71.0175 6.82 -71.3475 8.14 -71.6875 9.5 C-72.35753174 11.06524657 -73.06737698 12.61373475 -73.8046875 14.1484375 C-74.24184082 15.06141602 -74.67899414 15.97439453 -75.12939453 16.91503906 C-75.83878174 18.38021973 -75.83878174 18.38021973 -76.5625 19.875 C-77.04702637 20.88272461 -77.53155273 21.89044922 -78.03076172 22.92871094 C-82.01686493 31.18848166 -86.10180393 39.39787608 -90.24560547 47.57958984 C-90.68275879 48.44535645 -91.11991211 49.31112305 -91.5703125 50.203125 C-91.95590332 50.96270508 -92.34149414 51.72228516 -92.73876953 52.50488281 C-93.79740185 54.62666612 -93.79740185 54.62666612 -94.6875 57.5 C-95.3475 57.5 -96.0075 57.5 -96.6875 57.5 C-97.0175 59.15 -97.3475 60.8 -97.6875 62.5 C-99.6675 62.995 -99.6675 62.995 -101.6875 63.5 C-102.60311165 61.00336541 -102.78553403 59.7945786 -101.93408203 57.23608398 C-101.52528809 56.41438721 -101.11649414 55.59269043 -100.6953125 54.74609375 C-100.24172363 53.81812988 -99.78813477 52.89016602 -99.32080078 51.93408203 C-98.82306152 50.94520996 -98.32532227 49.95633789 -97.8125 48.9375 C-96.79112013 46.86094581 -95.77029526 44.78411856 -94.75 42.70703125 C-94.234375 41.66627441 -93.71875 40.62551758 -93.1875 39.55322266 C-90.63865599 34.36509713 -88.20499498 29.1229406 -85.77001953 23.88061523 C-83.62282974 19.31123378 -81.28029294 14.91676183 -78.73388672 10.55615234 C-77.70592976 8.53621452 -77.1410384 6.71294389 -76.6875 4.5 C-81.40212311 4.54435853 -86.11543302 4.61440284 -90.8293457 4.70751953 C-92.43047594 4.73561803 -94.03174202 4.75688759 -95.63305664 4.77099609 C-97.94487496 4.7925817 -100.25507914 4.83930558 -102.56640625 4.890625 C-103.6277755 4.89246796 -103.6277755 4.89246796 -104.71058655 4.89434814 C-110.18644195 5.05309562 -113.18221098 6.66465639 -117.6875 9.5 C-118.3475 9.5 -119.0075 9.5 -119.6875 9.5 C-122.38116035 16.23259024 -123.19921809 22.34539687 -123.375 29.5625 C-123.40916016 30.52349609 -123.44332031 31.48449219 -123.47851562 32.47460938 C-123.56006667 34.81628927 -123.62950966 37.15763863 -123.6875 39.5 C-125.0075 39.5 -126.3275 39.5 -127.6875 39.5 C-128.0175 38.18 -128.3475 36.86 -128.6875 35.5 C-129.3475 36.16 -130.0075 36.82 -130.6875 37.5 C-130.61789063 36.25283203 -130.61789063 36.25283203 -130.546875 34.98046875 C-130.51078125 33.89378906 -130.4746875 32.80710938 -130.4375 31.6875 C-130.36789063 30.06908203 -130.36789063 30.06908203 -130.296875 28.41796875 C-130.42578125 27.45503906 -130.5546875 26.49210937 -130.6875 25.5 C-131.3475 25.025625 -132.0075 24.55125 -132.6875 24.0625 C-133.3475 23.546875 -134.0075 23.03125 -134.6875 22.5 C-135.078125 19.14453125 -135.078125 19.14453125 -134.9375 15.3125 C-134.90140625 14.04019531 -134.8653125 12.76789063 -134.828125 11.45703125 C-134.78171875 10.48121094 -134.7353125 9.50539062 -134.6875 8.5 C-133.52734375 8.55607422 -133.52734375 8.55607422 -132.34375 8.61328125 C-128.70198445 8.45797066 -127.3904519 6.86508291 -124.6875 4.5 C-119.5289971 1.10293712 -115.74411263 0.3828853 -109.60327148 0.29467773 C-108.36935165 0.27473251 -107.13543182 0.25478729 -105.86412048 0.23423767 C-104.51228013 0.21720529 -103.16043782 0.20032847 -101.80859375 0.18359375 C-100.39925117 0.16295596 -98.98991383 0.14195809 -97.58058167 0.12062073 C-94.61063841 0.07663126 -91.64067437 0.03576312 -88.6706543 -0.00268555 C-84.95058839 -0.05090364 -81.23063341 -0.10471502 -77.51067638 -0.16064644 C-51.66538302 -0.54767949 -25.84199798 -0.69471497 0 0 Z " fill="#D7D6D4" transform="translate(287.6875,207.5)"/>
<path d="M0 0 C11.57788391 -0.4154743 22.76003818 1.99546725 34.078125 4.1953125 C30.4497476 11.7648752 23.80153582 15.46351349 16.078125 18.1953125 C4.50612477 21.28117923 -7.75241963 19.20413796 -18.109375 13.5078125 C-19.3874407 12.74903094 -20.66128785 11.9827904 -21.921875 11.1953125 C-21.921875 10.5353125 -21.921875 9.8753125 -21.921875 9.1953125 C-22.581875 9.1953125 -23.241875 9.1953125 -23.921875 9.1953125 C-24.581875 7.5453125 -25.241875 5.8953125 -25.921875 4.1953125 C-17.21507994 2.02543724 -8.92974716 0.59690823 0 0 Z " fill="#ECEBE8" transform="translate(245.921875,341.8046875)"/>
<path d="M0 0 C0.495 1.485 0.495 1.485 1 3 C2.99631538 4.02823131 5.02215947 4.99965927 7.0625 5.9375 C10.36328125 7.76171875 10.36328125 7.76171875 13 10 C14.09562461 14.17200897 13.66637001 17.77965658 13 22 C13 22.99 13 23.98 13 25 C12 28 12 28 10 29 C9.59270772 31.32156597 9.25561323 33.6568787 9 36 C8.34 35.34 7.68 34.68 7 34 C6.01 36.64 5.02 39.28 4 42 C3.34 41.67 2.68 41.34 2 41 C1.98541748 40.33991943 1.97083496 39.67983887 1.95581055 38.99975586 C1.88085388 35.97844603 1.78435194 32.95818405 1.6875 29.9375 C1.66494141 28.89916016 1.64238281 27.86082031 1.61914062 26.79101562 C1.38706515 20.1452179 1.05432195 14.28056802 -3.6875 9.1875 C-4.120625 8.795625 -4.55375 8.40375 -5 8 C-5 7.34 -5 6.68 -5 6 C-10.3090527 4.89704579 -15.40140905 4.88779327 -20.79296875 4.9375 C-22.7865392 4.94608265 -24.7801102 4.95454075 -26.77368164 4.96289062 C-28.34329147 4.97219604 -28.34329147 4.97219604 -29.9446106 4.98168945 C-48.15840136 5.08453122 -66.35420817 4.96450619 -84.5625 4.5 C-85.50467377 4.47599121 -86.44684753 4.45198242 -87.41757202 4.42724609 C-92.61195944 4.29296312 -97.80605587 4.15042155 -103 4 C-102.67 3.34 -102.34 2.68 -102 2 C-95.07 2 -88.14 2 -81 2 C-80.67 1.34 -80.34 0.68 -80 0 C-80 0.66 -80 1.32 -80 2 C-78.62936905 1.94029274 -78.62936905 1.94029274 -77.23104858 1.87937927 C-68.60951312 1.50492153 -59.98774614 1.1364739 -51.36566734 0.77473354 C-46.93324451 0.5885595 -42.50094482 0.40008299 -38.06884766 0.20629883 C-33.78969446 0.01928743 -29.51032229 -0.16161606 -25.23073196 -0.33833122 C-23.60002038 -0.40673395 -21.96939872 -0.47731748 -20.33887863 -0.55014229 C-18.05082782 -0.65195744 -15.76257678 -0.74593446 -13.47412109 -0.83813477 C-12.17284271 -0.89365005 -10.87156433 -0.94916534 -9.53085327 -1.00636292 C-6.22005921 -1.00039657 -3.23924274 -0.65237975 0 0 Z M8 25 C9 28 9 28 9 28 Z " fill="#D5D5D2" transform="translate(334,208)"/>
<path d="M0 0 C0.66 0.33 1.32 0.66 2 1 C1.49216482 5.06268146 0.02663604 8.17822037 -1.8671875 11.7421875 C-3.08281768 14.16506421 -4.12642002 16.64389477 -5.18310547 19.13916016 C-6.54249614 22.23577572 -8.08977743 25.23812761 -9.625 28.25 C-14.25736589 37.4178572 -18.63439181 46.70287145 -23 56 C-26.96 55.505 -26.96 55.505 -31 55 C-31 45.26645027 -25.72984182 36.14716508 -21.390625 27.69921875 C-19.59706737 24.20573998 -17.87343888 20.68371524 -16.171875 17.14453125 C-15.68783203 16.14768311 -15.20378906 15.15083496 -14.70507812 14.1237793 C-13.74691316 12.14909132 -12.79744966 10.17015369 -11.85742188 8.18676758 C-11.41462891 7.2820874 -10.97183594 6.37740723 -10.515625 5.4453125 C-10.12665039 4.63594238 -9.73767578 3.82657227 -9.33691406 2.99267578 C-6.82902325 -0.74534555 -4.14439593 -1.51961184 0 0 Z " fill="#E8E7E4" transform="translate(314,214)"/>
<path d="M0 0 C2.97 0.33 5.94 0.66 9 1 C8.45158011 5.21547208 7.49323487 8.49490155 5.55859375 12.2734375 C4.81210571 13.74695679 4.81210571 13.74695679 4.05053711 15.25024414 C3.51823486 16.28141357 2.98593262 17.31258301 2.4375 18.375 C1.89681885 19.43904053 1.3561377 20.50308105 0.79907227 21.59936523 C-0.28838789 23.73921661 -1.37892167 25.877509 -2.47265625 28.01416016 C-4.5220656 32.02059819 -6.54605646 36.0393991 -8.5625 40.0625 C-8.87195557 40.67335449 -9.18141113 41.28420898 -9.50024414 41.91357422 C-11.49758747 45.88384212 -13.28306954 49.9033726 -15 54 C-18.37462715 53.45276317 -20.08235 52.9451 -23 51 C-23.55419184 46.45034129 -22.59805831 43.43698159 -20.59375 39.3828125 C-20.09746094 38.36445313 -19.60117188 37.34609375 -19.08984375 36.296875 C-18.56519531 35.25015625 -18.04054687 34.2034375 -17.5 33.125 C-16.97535156 32.05507812 -16.45070312 30.98515625 -15.91015625 29.8828125 C-14.6171818 27.24984636 -13.31358666 24.62272694 -12 22 C-11.34 22 -10.68 22 -10 22 C-9.7834375 20.8553125 -9.7834375 20.8553125 -9.5625 19.6875 C-9 17 -9 17 -8 14 C-7.34 14 -6.68 14 -6 14 C-5.88785156 13.44828125 -5.77570313 12.8965625 -5.66015625 12.328125 C-4.88639227 9.59934789 -3.73182306 7.27227057 -2.4375 4.75 C-1.98246094 3.85796875 -1.52742188 2.9659375 -1.05859375 2.046875 C-0.70925781 1.37140625 -0.35992187 0.6959375 0 0 Z " fill="#E7E6E3" transform="translate(196,213)"/>
<path d="M0 0 C1.74060537 2.35823953 2.61796774 3.74920968 2.9375 6.625 C2.2775 6.955 1.6175 7.285 0.9375 7.625 C0.2775 8.615 -0.3825 9.605 -1.0625 10.625 C-2.3825 8.315 -3.7025 6.005 -5.0625 3.625 C-9.6825 3.625 -14.3025 3.625 -19.0625 3.625 C-20.0525 5.501875 -21.0425 7.37875 -22.0625 9.3125 C-22.619375 10.36824219 -23.17625 11.42398438 -23.75 12.51171875 C-25.0297274 15.54726262 -25.35101043 17.38526826 -25.0625 20.625 C-25.7225 20.295 -26.3825 19.965 -27.0625 19.625 C-27.44921875 20.30046875 -27.8359375 20.9759375 -28.234375 21.671875 C-29.01554687 23.00992187 -29.01554687 23.00992187 -29.8125 24.375 C-30.57820313 25.69757813 -30.57820313 25.69757813 -31.359375 27.046875 C-34.9222758 32.44025694 -38.71938612 35.13479901 -45.0625 36.625 C-48.57667596 36.94849488 -52.03757919 36.91240691 -55.5625 36.8125 C-56.4803125 36.79896484 -57.398125 36.78542969 -58.34375 36.77148438 C-60.58396803 36.73648097 -62.82290594 36.68738869 -65.0625 36.625 C-65.7225 35.305 -66.3825 33.985 -67.0625 32.625 C-63.42429463 31.46944097 -60.04651278 31.55918829 -56.25 31.625 C-51.38200207 31.66560895 -46.83995621 31.53499166 -42.0625 30.625 C-42.0625 29.965 -42.0625 29.305 -42.0625 28.625 C-41.0725 28.625 -40.0825 28.625 -39.0625 28.625 C-39.0625 27.965 -39.0625 27.305 -39.0625 26.625 C-38.4025 26.625 -37.7425 26.625 -37.0625 26.625 C-36.835625 25.985625 -36.60875 25.34625 -36.375 24.6875 C-34.89166163 21.22637713 -33.08087527 18.05705499 -31.18359375 14.80859375 C-30.11805824 12.73321274 -29.52214015 10.90254277 -29.0625 8.625 C-28.4025 8.625 -27.7425 8.625 -27.0625 8.625 C-27.000625 7.738125 -26.93875 6.85125 -26.875 5.9375 C-25.83639024 1.70316791 -24.51202121 0.26718646 -21.0625 -2.375 C-13.6667961 -5.25807101 -6.41296081 -4.97331655 0 0 Z M-17.0625 1.625 C-17.0625 1.955 -17.0625 2.285 -17.0625 2.625 C-13.7625 2.625 -10.4625 2.625 -7.0625 2.625 C-7.0625 2.295 -7.0625 1.965 -7.0625 1.625 C-10.3625 1.625 -13.6625 1.625 -17.0625 1.625 Z " fill="#C5C5C2" transform="translate(262.0625,239.375)"/>
<path d="M0 0 C0.33 0 0.66 0 1 0 C1.495 3.465 1.495 3.465 2 7 C2.99 5.68 3.98 4.36 5 3 C5.2236337 4.41433206 5.42826476 5.83167618 5.625 7.25 C5.74101562 8.03890625 5.85703125 8.8278125 5.9765625 9.640625 C6.00351634 12.35397779 5.37095578 13.69206005 4 16 C3.67 16.66 3.34 17.32 3 18 C2.02248365 19.34990354 1.01800576 20.68036291 0 22 C-1.0209375 23.36125 -1.0209375 23.36125 -2.0625 24.75 C-3.0215625 25.86375 -3.0215625 25.86375 -4 27 C-4.66 27 -5.32 27 -6 27 C-6 27.66 -6 28.32 -6 29 C-20.21892601 34.6655682 -32.86730558 35.26678599 -48 35 C-48 34.67 -48 34.34 -48 34 C-42.06 33.67 -36.12 33.34 -30 33 C-30 32.01 -30 31.02 -30 30 C-28.75863281 29.68546875 -27.51726562 29.3709375 -26.23828125 29.046875 C-24.59618207 28.6152375 -22.95426434 28.18290933 -21.3125 27.75 C-20.49587891 27.54503906 -19.67925781 27.34007812 -18.83789062 27.12890625 C-13.98720946 25.83277282 -10.81204587 24.41116151 -7 21 C-6.34 21 -5.68 21 -5 21 C-2.74503612 14.06974434 -1.16239217 7.19315625 0 0 Z M4 9 C5 12 5 12 5 12 Z " fill="#C0BFBD" transform="translate(335,242)"/>
<path d="M0 0 C0 0.33 0 0.66 0 1 C-15.02604095 1.60887934 -30.00867763 2.07683051 -45.04833984 1.98046875 C-55.06106664 1.94148976 -65.00310236 2.440733 -75 3 C-61.14 3.33 -47.28 3.66 -33 4 C-33 4.33 -33 4.66 -33 5 C-40.65377999 5.05057791 -48.30751713 5.08568184 -55.96142578 5.10986328 C-58.56691091 5.11994064 -61.17238469 5.1336027 -63.77783203 5.15087891 C-67.51597899 5.17505102 -71.25397685 5.1864656 -74.9921875 5.1953125 C-76.74847977 5.21079636 -76.74847977 5.21079636 -78.54025269 5.22659302 C-80.161707 5.22681961 -80.161707 5.22681961 -81.81591797 5.22705078 C-82.77078094 5.231492 -83.72564392 5.23593323 -84.70944214 5.24050903 C-87 5 -87 5 -89 3 C-88.67 2.34 -88.34 1.68 -88 1 C-95.26 1 -102.52 1 -110 1 C-110 0.67 -110 0.34 -110 0 C-73.27772442 -1.01072949 -36.72286261 -0.98367146 0 0 Z " fill="#E0E0DA" transform="translate(307,208)"/>
<path d="M0 0 C0.33 0.66 0.66 1.32 1 2 C2.90265625 1.89171875 2.90265625 1.89171875 4.84375 1.78125 C24.89050598 0.74986426 44.93345348 0.90323995 65 1 C65 1.66 65 2.32 65 3 C60.87171943 4.37609352 56.89035903 4.37050044 52.5625 4.5625 C51.74201172 4.60568359 50.92152344 4.64886719 50.07617188 4.69335938 C32.81869085 5.49930549 15.51022683 4.93759976 -1.75 4.5 C-3.73046334 4.45160095 -5.71093209 4.40342291 -7.69140625 4.35546875 C-12.46100341 4.23951238 -17.23051851 4.12061643 -22 4 C-21.67 3.34 -21.34 2.68 -21 2 C-14.07 2 -7.14 2 0 2 C0 1.34 0 0.68 0 0 Z " fill="#FBFAF7" transform="translate(253,208)"/>
<path d="M0 0 C0.495 1.98 0.495 1.98 1 4 C-13.85 3.67 -28.7 3.34 -44 3 C-44 2.01 -44 1.02 -44 0 C-29.53277677 -2.31475572 -14.55649344 -0.74344492 0 0 Z " fill="#F5F5F2" transform="translate(219,209)"/>
<path d="M0 0 C9.57 0 19.14 0 29 0 C29 0.33 29 0.66 29 1 C28.21625 1.12375 27.4325 1.2475 26.625 1.375 C23.85942178 1.79117993 23.85942178 1.79117993 22 4 C21.01 3.34 20.02 2.68 19 2 C17.00041636 1.95919217 14.99954746 1.95745644 13 2 C12.34 1.67 11.68 1.34 11 1 C10.86859619 1.58426758 10.73719238 2.16853516 10.60180664 2.77050781 C10.0307946 4.88591632 9.3079142 6.6960355 8.37109375 8.671875 C8.05849609 9.33574219 7.74589844 9.99960938 7.42382812 10.68359375 C7.09833984 11.36550781 6.77285156 12.04742187 6.4375 12.75 C6.10814453 13.44738281 5.77878906 14.14476562 5.43945312 14.86328125 C4.62952288 16.5770467 3.81519362 18.28873194 3 20 C-0.875 17.25 -0.875 17.25 -2 15 C-1.10333658 12.75689987 -0.10853317 10.55245679 0.9375 8.375 C1.50339844 7.18648437 2.06929688 5.99796875 2.65234375 4.7734375 C3.09707031 3.85820312 3.54179687 2.94296875 4 2 C2.68 1.34 1.36 0.68 0 0 Z " fill="#D2D1CF" transform="translate(294,212)"/>
<path d="M0 0 C2.97 0.495 2.97 0.495 6 1 C3.03 7.6 0.06 14.2 -3 21 C-3.66 21 -4.32 21 -5 21 C-5.33 22.65 -5.66 24.3 -6 26 C-7.32 26.33 -8.64 26.66 -10 27 C-11.03668061 24.32717889 -11.06451089 23.18465826 -10.10375977 20.43457031 C-9.40464478 19.02062988 -9.40464478 19.02062988 -8.69140625 17.578125 C-8.19189453 16.55332031 -7.69238281 15.52851563 -7.17773438 14.47265625 C-6.64470703 13.40917969 -6.11167969 12.34570312 -5.5625 11.25 C-5.03333984 10.17105469 -4.50417969 9.09210938 -3.95898438 7.98046875 C-2.64979906 5.31492028 -1.32985591 2.65528002 0 0 Z " fill="#CAC9C7" transform="translate(196,244)"/>
<path d="M0 0 C11.22 0 22.44 0 34 0 C34 0.33 34 0.66 34 1 C32.35 1 30.7 1 29 1 C28.67 1.99 28.34 2.98 28 4 C28 3.34 28 2.68 28 2 C26.7625 2.020625 25.525 2.04125 24.25 2.0625 C21.3359175 2.06766681 18.79046673 1.93015558 16 1 C15.83177734 2.05767578 15.83177734 2.05767578 15.66015625 3.13671875 C14.93685092 6.27389512 13.80542309 8.90127906 12.4375 11.8125 C11.98246094 12.78832031 11.52742187 13.76414063 11.05859375 14.76953125 C10.70925781 15.50558594 10.35992187 16.24164063 10 17 C9.34 16.34 8.68 15.68 8 15 C5.12579877 17.71604715 5.12579877 17.71604715 3 21 C2.34 20.67 1.68 20.34 1 20 C2.30899706 17.18585648 3.62278165 14.37397463 4.9375 11.5625 C5.31068359 10.76005859 5.68386719 9.95761719 6.06835938 9.13085938 C6.60493164 7.98520508 6.60493164 7.98520508 7.15234375 6.81640625 C7.48226318 6.10943604 7.81218262 5.40246582 8.15209961 4.67407227 C9 3 9 3 10 2 C6.7 1.67 3.4 1.34 0 1 C0 0.67 0 0.34 0 0 Z " fill="#A7A6A3" transform="translate(177,212)"/>
<path d="M0 0 C-0.31952044 7.02944975 -3.0933802 13.19192809 -7 19 C-9.42764056 20.78674345 -11.02578407 21.28618818 -14 22 C-14.26023028 18.03324649 -13.64722408 15.69541461 -11.6875 12.25 C-11.25824219 11.47140625 -10.82898438 10.6928125 -10.38671875 9.890625 C-9 8 -9 8 -6 7 C-5.31867549 5.33927151 -4.65257873 3.672233 -4 2 C-1 0 -1 0 0 0 Z " fill="#DBDAD8" transform="translate(186,226)"/>
<path d="M0 0 C23.01292823 -0.20154141 45.99725337 0.38384037 69 1 C69 1.33 69 1.66 69 2 C51.32326197 2.7113071 33.69298938 3.16109319 16 3 C16 2.34 16 1.68 16 1 C10.72 1 5.44 1 0 1 C0 0.67 0 0.34 0 0 Z " fill="#585653" transform="translate(238,207)"/>
<path d="M0 0 C1.00023193 0.00523682 2.00046387 0.01047363 3.03100586 0.01586914 C4.1105957 0.0190918 5.19018555 0.02231445 6.30249023 0.02563477 C8.00695312 0.03820312 8.00695312 0.03820312 9.74584961 0.05102539 C11.45611328 0.05779297 11.45611328 0.05779297 13.20092773 0.06469727 C16.02845312 0.07652792 18.85587601 0.09301129 21.68334961 0.11352539 C21.68334961 1.10352539 21.68334961 2.09352539 21.68334961 3.11352539 C16.5709818 5.18787271 12.22004068 5.35776604 6.80834961 5.23852539 C5.63272461 5.22499023 5.63272461 5.22499023 4.43334961 5.21118164 C2.51654906 5.18780602 0.5999077 5.15194192 -1.31665039 5.11352539 C-1.97665039 3.79352539 -2.63665039 2.47352539 -3.31665039 1.11352539 C-2.31665039 0.11352539 -2.31665039 0.11352539 0 0 Z " fill="#FAFAF7" transform="translate(198.316650390625,270.886474609375)"/>
<path d="M0 0 C0.33 0.66 0.66 1.32 1 2 C2.60875 1.87625 2.60875 1.87625 4.25 1.75 C5.4875 1.8325 6.725 1.915 8 2 C8.5671875 2.6496875 9.134375 3.299375 9.71875 3.96875 C12.94557932 6.84195419 16.12521167 6.66983627 20.25 6.75 C20.99507812 6.77964844 21.74015625 6.80929687 22.5078125 6.83984375 C24.33796672 6.9102343 26.16898769 6.95741832 28 7 C28 7.33 28 7.66 28 8 C1.97983871 8.48991935 1.97983871 8.48991935 -5 5 C-4.67 3.68 -4.34 2.36 -4 1 C-2.68 0.67 -1.36 0.34 0 0 Z " fill="#B7B6B3" transform="translate(185,269)"/>
<path d="M0 0 C1.86785156 0.01353516 1.86785156 0.01353516 3.7734375 0.02734375 C5.18496094 0.04474609 5.18496094 0.04474609 6.625 0.0625 C8.625 3.9375 8.625 3.9375 8.625 5.0625 C5.33340684 5.12040353 2.04194397 5.15606261 -1.25 5.1875 C-2.65572266 5.21263672 -2.65572266 5.21263672 -4.08984375 5.23828125 C-4.98574219 5.24472656 -5.88164062 5.25117188 -6.8046875 5.2578125 C-7.63210449 5.26828613 -8.45952148 5.27875977 -9.31201172 5.28955078 C-11.375 5.0625 -11.375 5.0625 -13.375 3.0625 C-13.375 2.4025 -13.375 1.7425 -13.375 1.0625 C-8.85684719 0.17972245 -4.59987306 -0.04339503 0 0 Z " fill="#FCFCFA" transform="translate(297.375,270.9375)"/>
<path d="M0 0 C1 4 1 4 0.0625 6.25 C-0.288125 6.8275 -0.63875 7.405 -1 8 C1.31 8.66 3.62 9.32 6 10 C6 10.66 6 11.32 6 12 C4.35 12.33 2.7 12.66 1 13 C1.33 13.99 1.66 14.98 2 16 C-2.72867022 15.53640488 -6.18142796 14.9200845 -10 12 C-10.33 11.01 -10.66 10.02 -11 9 C-10.34 9 -9.68 9 -9 9 C-9 8.34 -9 7.68 -9 7 C-6.525 7.99 -6.525 7.99 -4 9 C-2.68 6.03 -1.36 3.06 0 0 Z " fill="#B9B9B7" transform="translate(284,260)"/>
<path d="M0 0 C0.99 0.66 1.98 1.32 3 2 C2.45660208 6.56454251 1.20536179 9.9728176 -1 14 C-1.66 14 -2.32 14 -3 14 C-3 14.66 -3 15.32 -3 16 C-4.32 15.67 -5.64 15.34 -7 15 C-6.47799942 9.77999416 -4.79095098 5.41286212 -2 1 C-1.34 0.67 -0.68 0.34 0 0 Z " fill="#D8D7D6" transform="translate(293,228)"/>
<path d="M0 0 C3.1875 0.3125 3.1875 0.3125 5.5625 1.9375 C7.6006192 4.9162896 7.50902515 6.77572336 7.1875 10.3125 C6.5275 10.3125 5.8675 10.3125 5.1875 10.3125 C4.775 9.343125 4.3625 8.37375 3.9375 7.375 C2.53850832 4.18989901 2.53850832 4.18989901 0 3.4375 C-0.598125 3.39625 -1.19625 3.355 -1.8125 3.3125 C-2.1425 5.2925 -2.4725 7.2725 -2.8125 9.3125 C-5.1225 9.6425 -7.4325 9.9725 -9.8125 10.3125 C-10.1425 8.9925 -10.4725 7.6725 -10.8125 6.3125 C-9.1625 6.3125 -7.5125 6.3125 -5.8125 6.3125 C-5.503125 5.508125 -5.19375 4.70375 -4.875 3.875 C-3.42613636 0.38068182 -3.42613636 0.38068182 0 0 Z " fill="#CCCBCA" transform="translate(237.8125,304.6875)"/>
<path d="M0 0 C0.33 0.66 0.66 1.32 1 2 C-8.9 2 -18.8 2 -29 2 C-29 1.34 -29 0.68 -29 0 C-19.62722163 -2.54177041 -9.20250437 -3.76466088 0 0 Z " fill="#ADA9A8" transform="translate(264,294)"/>
<path d="M0 0 C0.99 0.33 1.98 0.66 3 1 C2.43174347 6.54050113 0.37113483 11.03715966 -2 16 C-3.65 16 -5.3 16 -7 16 C-6.44353679 10.57448372 -4.64754321 5.74559632 -2 1 C-1.34 0.67 -0.68 0.34 0 0 Z " fill="#C9C9C5" transform="translate(304,256)"/>
<path d="M0 0 C4.15153964 3.41019328 6.53086442 7.88055823 8 13 C7.79296875 15.21875 7.79296875 15.21875 7 17 C6.01 17.33 5.02 17.66 4 18 C3.15415002 16.44424022 2.32381601 14.8800388 1.5 13.3125 C1.0359375 12.44238281 0.571875 11.57226562 0.09375 10.67578125 C-1.0568805 7.86084592 -1.12268155 6.00058614 -1 3 C-1.33 2.34 -1.66 1.68 -2 1 C-1.34 0.67 -0.68 0.34 0 0 Z " fill="#D4D3D1" transform="translate(263,245)"/>
<path d="M0 0 C0.33 0 0.66 0 1 0 C1.33 2.31 1.66 4.62 2 7 C2.99 5.68 3.98 4.36 5 3 C5.2236337 4.41433206 5.42826476 5.83167618 5.625 7.25 C5.74101562 8.03890625 5.85703125 8.8278125 5.9765625 9.640625 C6.00351634 12.35397779 5.37095578 13.69206005 4 16 C3.67 16.66 3.34 17.32 3 18 C1.02 18 -0.96 18 -3 18 C-2.19500136 11.96251023 -1.11517502 5.98729887 0 0 Z M4 9 C5 12 5 12 5 12 Z " fill="#B1B1AF" transform="translate(335,242)"/>
<path d="M0 0 C0 0.66 0 1.32 0 2 C0.66 2 1.32 2 2 2 C2.33 2.99 2.66 3.98 3 5 C5.01508358 5.73323796 5.01508358 5.73323796 7 6 C6.67 6.99 6.34 7.98 6 9 C4.125 9.875 4.125 9.875 2 10 C0.25 8.8125 0.25 8.8125 -1 7 C-1 5.68 -1 4.36 -1 3 C-4.81413002 4.1678266 -4.81413002 4.1678266 -7.3125 7.125 C-7.539375 7.74375 -7.76625 8.3625 -8 9 C-8.66 9 -9.32 9 -10 9 C-10.25 6.1875 -10.25 6.1875 -10 3 C-7.05843777 -0.39411027 -4.30855278 -0.29376496 0 0 Z " fill="#B0AEAB" transform="translate(265,305)"/>
<path d="M0 0 C12.21 0 24.42 0 37 0 C34.33333333 1.33333333 31.66666667 2.66666667 29 4 C29 4.33 29 4.66 29 5 C26.125 5.125 26.125 5.125 23 5 C22.34 4.34 21.68 3.68 21 3 C21.33 2.34 21.66 1.68 22 1 C14.74 1 7.48 1 0 1 C0 0.67 0 0.34 0 0 Z " fill="#8B8B84" transform="translate(197,208)"/>
<path d="M0 0 C1.65 0.33 3.3 0.66 5 1 C4.38144369 2.6274637 3.75492695 4.25190356 3.125 5.875 C2.77695312 6.77992188 2.42890625 7.68484375 2.0703125 8.6171875 C1 11 1 11 -1 13 C-2.32 12.34 -3.64 11.68 -5 11 C-3.77472971 6.94718288 -2.30119506 3.55639236 0 0 Z " fill="#CFCECB" transform="translate(324,213)"/>
<path d="M0 0 C0.33 0 0.66 0 1 0 C2.7610915 11.82994076 2.7610915 11.82994076 0.0625 15.75 C-0.618125 16.4925 -1.29875 17.235 -2 18 C-2.77999376 15.66001872 -3.42036234 13.39100534 -4 11 C-4.20625 10.319375 -4.4125 9.63875 -4.625 8.9375 C-5 7 -5 7 -4 4 C-2.68 4 -1.36 4 0 4 C0 2.68 0 1.36 0 0 Z " fill="#B9B9B7" transform="translate(164,243)"/>
<path d="M0 0 C0 0.99 0 1.98 0 3 C-5.94 3 -11.88 3 -18 3 C-18 2.01 -18 1.02 -18 0 C-11.76817361 -1.03863773 -6.25307239 -0.83288874 0 0 Z " fill="#FCFBFA" transform="translate(193,209)"/>
<path d="M0 0 C1.98 0 3.96 0 6 0 C5.72482232 4.67802059 3.66806114 6.74638753 0.47265625 9.86328125 C-1 11 -1 11 -3 11 C-2.53199289 6.94393835 -2.12046792 3.53411321 0 0 Z " fill="#C0BFBE" transform="translate(335,330)"/>
<path d="M0 0 C0.99 0.33 1.98 0.66 3 1 C2.67 1.99 2.34 2.98 2 4 C2.80972016 6.40084462 2.80972016 6.40084462 4 9 C4.67795528 10.99620166 5.34733531 12.99538701 6 15 C2.32943063 13.52202738 0.58914217 11.52384523 -1.75 8.375 C-2.36359375 7.55773437 -2.9771875 6.74046875 -3.609375 5.8984375 C-4.06828125 5.27195312 -4.5271875 4.64546875 -5 4 C-4.01 3.67 -3.02 3.34 -2 3 C-1.34 2.01 -0.68 1.02 0 0 Z " fill="#B9B6B5" transform="translate(197,353)"/>
<path d="M0 0 C0.33 0 0.66 0 1 0 C1 7.59 1 15.18 1 23 C0.34 23.33 -0.32 23.66 -1 24 C-1.12117188 23.35933594 -1.24234375 22.71867187 -1.3671875 22.05859375 C-2.35679227 16.95071067 -3.48510951 11.97749731 -5 7 C-4.01 7.495 -4.01 7.495 -3 8 C-3 8.99 -3 9.98 -3 11 C-2.34 11 -1.68 11 -1 11 C-0.67 7.37 -0.34 3.74 0 0 Z " fill="#A4A1A0" transform="translate(373,262)"/>
<path d="M0 0 C9.57 0 19.14 0 29 0 C29 0.33 29 0.66 29 1 C28.21625 1.12375 27.4325 1.2475 26.625 1.375 C23.85942178 1.79117993 23.85942178 1.79117993 22 4 C21.01 3.34 20.02 2.68 19 2 C17.00041636 1.95919217 14.99954746 1.95745644 13 2 C12.34 1.67 11.68 1.34 11 1 C10.67 1.99 10.34 2.98 10 4 C9.67 3.34 9.34 2.68 9 2 C7.35 2.66 5.7 3.32 4 4 C4 3.34 4 2.68 4 2 C2.68 1.34 1.36 0.68 0 0 Z " fill="#6B6A67" transform="translate(294,212)"/>
<path d="M0 0 C0.99 0 1.98 0 3 0 C2.34 5.28 1.68 10.56 1 16 C0.34 16 -0.32 16 -1 16 C-1.22127098 13.70954632 -1.4266504 11.41755236 -1.625 9.125 C-1.74101562 7.84882813 -1.85703125 6.57265625 -1.9765625 5.2578125 C-1.98816406 3.64519531 -1.98816406 3.64519531 -2 2 C-1.34 1.34 -0.68 0.68 0 0 Z " fill="#E1DFDF" transform="translate(363,298)"/>
<path d="M0 0 C1.65 1.65 3.3 3.3 5 5 C4.34 6.98 3.68 8.96 3 11 C2.34 11 1.68 11 1 11 C-3 5.70588235 -3 5.70588235 -3 2 C-2.01 1.34 -1.02 0.68 0 0 Z " fill="#C4C4C2" transform="translate(271,260)"/>
<path d="M0 0 C6.1105424 -0.11269443 11.95170514 0.10395632 18 1 C17.67 1.99 17.34 2.98 17 4 C15.20866022 4.05391993 13.41686101 4.09275571 11.625 4.125 C10.62726563 4.14820313 9.62953125 4.17140625 8.6015625 4.1953125 C6 4 6 4 4 2 C2.68252676 1.30251417 1.35085807 0.63040043 0 0 Z " fill="#ECEBE7" transform="translate(187,208)"/>
<path d="M0 0 C1.32 0.99 2.64 1.98 4 3 C4.99 2.01 5.98 1.02 7 0 C8.65 3.3 10.3 6.6 12 10 C7.98694273 8.99673568 6.72953968 8.21649738 3.75 5.5625 C3.04359375 4.94503906 2.3371875 4.32757813 1.609375 3.69140625 C0 2 0 2 0 0 Z " fill="#959492" transform="translate(209,365)"/>
<path d="M0 0 C0.33 0 0.66 0 1 0 C1.33 1.98 1.66 3.96 2 6 C2.66 6 3.32 6 4 6 C3.979375 7.11375 3.95875 8.2275 3.9375 9.375 C3.73619282 12.83215921 3.73619282 12.83215921 5 15 C3.35 15.66 1.7 16.32 0 17 C0.66666667 14.33333333 1.33333333 11.66666667 2 9 C1.67 9.33 1.34 9.66 1 10 C0.01 10.33 -0.98 10.66 -2 11 C-1.34 7.37 -0.68 3.74 0 0 Z " fill="#878686" transform="translate(354,168)"/>
<path d="M0 0 C-1.875 4.75 -1.875 4.75 -3 7 C-3.66 7 -4.32 7 -5 7 C-5 6.34 -5 5.68 -5 5 C-5.66 5 -6.32 5 -7 5 C-7.66 3.35 -8.32 1.7 -9 0 C-3.375 -1.125 -3.375 -1.125 0 0 Z " fill="#CAC9C8" transform="translate(229,346)"/>
<path d="M0 0 C1.65 0.99 3.3 1.98 5 3 C4.690625 3.5775 4.38125 4.155 4.0625 4.75 C3.07416636 6.84294184 2.4831387 8.74535275 2 11 C0 10 0 10 -2 8 C-1.69347955 5.0574037 -1.32728846 2.65457692 0 0 Z " fill="#A99CA9" transform="translate(129,236)"/>
<path d="M0 0 C1.0326802 2.78823655 1.04509293 3.8677274 0.0625 6.75 C-0.288125 7.4925 -0.63875 8.235 -1 9 C-2.65 9 -4.3 9 -6 9 C-6 5 -6 5 -4.6875 3.515625 C-3.125 2.34375 -1.5625 1.171875 0 0 Z " fill="#CFCFCE" transform="translate(303,263)"/>
<path d="M0 0 C0 0.33 0 0.66 0 1 C-1.65 1.33 -3.3 1.66 -5 2 C-5 2.66 -5 3.32 -5 4 C-7.875 4.125 -7.875 4.125 -11 4 C-11.66 3.34 -12.32 2.68 -13 2 C-13 1.34 -13 0.68 -13 0 C-8.37078475 -1.0161692 -4.65537393 -0.83796731 0 0 Z " fill="#F5F4F3" transform="translate(297,272)"/>
<path d="M0 0 C4 6 4 6 4 10 C2 10 2 10 0.375 8.5 C-0.07875 8.005 -0.5325 7.51 -1 7 C-1.33 7.66 -1.66 8.32 -2 9 C-3.5625 6.625 -3.5625 6.625 -5 4 C-4.67 3.34 -4.34 2.68 -4 2 C-1 3 -1 3 0 4 C0 2.68 0 1.36 0 0 Z " fill="#898786" transform="translate(369,234)"/>
<path d="M0 0 C0.99 0.33 1.98 0.66 3 1 C3 2.32 3 3.64 3 5 C0.69 5.33 -1.62 5.66 -4 6 C-4.33 4.68 -4.66 3.36 -5 2 C-3.35 2 -1.7 2 0 2 C0 1.34 0 0.68 0 0 Z " fill="#939391" transform="translate(232,309)"/>
<path d="M0 0 C0.94875 0.04125 1.8975 0.0825 2.875 0.125 C3.205 0.785 3.535 1.445 3.875 2.125 C3.09125 2.3725 2.3075 2.62 1.5 2.875 C-1.44817108 4.27889099 -2.0274777 5.13175737 -3.125 8.125 C-3.785 8.125 -4.445 8.125 -5.125 8.125 C-5.25 5.25 -5.25 5.25 -5.125 2.125 C-3.125 0.125 -3.125 0.125 0 0 Z " fill="#C4C2C1" transform="translate(260.125,305.875)"/>
<path d="M0 0 C-0.33 2.31 -0.66 4.62 -1 7 C-2.66666667 7 -4.33333333 7 -6 7 C-3.60526316 0 -3.60526316 0 0 0 Z M-8 7 C-7.34 7.33 -6.68 7.66 -6 8 C-6.99 8 -7.98 8 -9 8 C-8.67 7.67 -8.34 7.34 -8 7 Z " fill="#E2E2DF" transform="translate(186,226)"/>
<path d="M0 0 C1.65 0.33 3.3 0.66 5 1 C4.01 3.64 3.02 6.28 2 9 C1.67 7.68 1.34 6.36 1 5 C0.01 5 -0.98 5 -2 5 C-1.34 3.35 -0.68 1.7 0 0 Z " fill="#ADACAC" transform="translate(324,213)"/>
<path d="M0 0 C2.66666667 0.66666667 5.33333333 1.33333333 8 2 C7.67 3.65 7.34 5.3 7 7 C5.02 7.33 3.04 7.66 1 8 C1.66 6.35 2.32 4.7 3 3 C2.01 2.01 1.02 1.02 0 0 Z " fill="#B7B7B5" transform="translate(307,151)"/>
<path d="M0 0 C1.32 0.33 2.64 0.66 4 1 C2.44499019 4.81684226 -0.03595495 7.19195732 -3 10 C-3.33 9.34 -3.66 8.68 -4 8 C-3.22265625 6.0546875 -3.22265625 6.0546875 -2.0625 3.875 C-1.49208984 2.78832031 -1.49208984 2.78832031 -0.91015625 1.6796875 C-0.60980469 1.12539063 -0.30945313 0.57109375 0 0 Z " fill="#ABA9AA" transform="translate(301,358)"/>
<path d="M0 0 C0.99 0.99 1.98 1.98 3 3 C1.55922954 6.36179774 -0.24750021 8.59156268 -3 11 C-3.66 11 -4.32 11 -5 11 C-3.55049545 7.2089881 -1.84827434 3.6125362 0 0 Z " fill="#837F7E" transform="translate(344,335)"/>
<path d="M0 0 C2.31 0 4.62 0 7 0 C7 0.99 7 1.98 7 3 C4.03 3.66 1.06 4.32 -2 5 C-1.34 3.35 -0.68 1.7 0 0 Z " fill="#F0EEEE" transform="translate(213,271)"/>
<path d="M0 0 C2.97 0.495 2.97 0.495 6 1 C5.01 3.31 4.02 5.62 3 8 C2.67 7.34 2.34 6.68 2 6 C0.68 6 -0.64 6 -2 6 C-1.34 4.02 -0.68 2.04 0 0 Z " fill="#BAB8B8" transform="translate(196,244)"/>
<path d="M0 0 C0.99 0.33 1.98 0.66 3 1 C2.25 7.625 2.25 7.625 0 11 C-1 10 -1 10 -1.125 6.625 C-1 3 -1 3 0 0 Z " fill="#FAFAF7" transform="translate(337,239)"/>
<path d="M0 0 C-1.25 1.5 -1.25 1.5 -3 3 C-4.32 3 -5.64 3 -7 3 C-7 3.66 -7 4.32 -7 5 C-7.66 5 -8.32 5 -9 5 C-9 4.34 -9 3.68 -9 3 C-10.98 3 -12.96 3 -15 3 C-15 2.67 -15 2.34 -15 2 C-9.92523206 0.73694665 -5.27203646 -0.27036084 0 0 Z " fill="#ABABA9" transform="translate(274,139)"/>
<path d="M0 0 C2.0625 0.4375 2.0625 0.4375 4 1 C4 2.65 4 4.3 4 6 C3.01 6.495 3.01 6.495 2 7 C1.34 6.34 0.68 5.68 0 5 C-0.99 5.66 -1.98 6.32 -3 7 C-1.125 1.125 -1.125 1.125 0 0 Z " fill="#A8A8A6" transform="translate(312,237)"/>
<path d="M0 0 C0.66 1.32 1.32 2.64 2 4 C1.01 5.485 1.01 5.485 0 7 C0.66 7.33 1.32 7.66 2 8 C0.02 9.32 -1.96 10.64 -4 12 C-3.67 10.906875 -3.34 9.81375 -3 8.6875 C-1.86913351 5.15421116 -1.86913351 5.15421116 -2 2 C-1.34 2 -0.68 2 0 2 C0 1.34 0 0.68 0 0 Z " fill="#9E9998" transform="translate(132,149)"/>
<path d="M0 0 C1 3 1 3 -0.25 6.125 C-2 9 -2 9 -5 10 C-4.56802365 5.2482602 -3.67230705 3.07999946 0 0 Z " fill="#B1AEAC" transform="translate(154,196)"/>
<path d="M0 0 C0.66 0.66 1.32 1.32 2 2 C1.875 4.5 1.875 4.5 1 7 C-0.98 7.99 -0.98 7.99 -3 9 C-2.01 6.03 -1.02 3.06 0 0 Z " fill="#AEAEAC" transform="translate(283,366)"/>
<path d="M0 0 C1.5 1.125 1.5 1.125 3 3 C3.1875 6.1875 3.1875 6.1875 3 9 C2.34 9 1.68 9 1 9 C0.01 6.69 -0.98 4.38 -2 2 C-1.34 2 -0.68 2 0 2 C0 1.34 0 0.68 0 0 Z " fill="#8B8989" transform="translate(242,306)"/>
<path d="M0 0 C1.32 0 2.64 0 4 0 C3.855625 0.70125 3.71125 1.4025 3.5625 2.125 C2.98521625 5.07556141 2.48304859 8.03270151 2 11 C1.34 11 0.68 11 0 11 C0.33 8.03 0.66 5.06 1 2 C0.34 1.67 -0.32 1.34 -1 1 C-0.67 0.67 -0.34 0.34 0 0 Z M2 2 C3 4 3 4 3 4 Z " fill="#B2B2B1" transform="translate(226,272)"/>
<path d="M0 0 C1.65 0 3.3 0 5 0 C4.01 0.495 4.01 0.495 3 1 C3 1.66 3 2.32 3 3 C3.99 3.66 4.98 4.32 6 5 C3.36 5 0.72 5 -2 5 C-1.34 3.35 -0.68 1.7 0 0 Z " fill="#A7A6A5" transform="translate(348,156)"/>
<path d="M0 0 C0.556875 0.226875 1.11375 0.45375 1.6875 0.6875 C0.6975 1.3475 -0.2925 2.0075 -1.3125 2.6875 C-1.6425 3.6775 -1.9725 4.6675 -2.3125 5.6875 C-2.9725 5.6875 -3.6325 5.6875 -4.3125 5.6875 C-4.3125 5.0275 -4.3125 4.3675 -4.3125 3.6875 C-5.3025 3.3575 -6.2925 3.0275 -7.3125 2.6875 C-2.88173077 -0.38942308 -2.88173077 -0.38942308 0 0 Z " fill="#C6C5C0" transform="translate(209.3125,145.3125)"/>
<path d="M0 0 C2.31 0 4.62 0 7 0 C6.01 1.485 6.01 1.485 5 3 C1.875 3.1875 1.875 3.1875 -1 3 C-0.67 2.01 -0.34 1.02 0 0 Z " fill="#FDFDFC" transform="translate(205,209)"/>
<path d="M0 0 C0.33 0 0.66 0 1 0 C1.66 2.97 2.32 5.94 3 9 C1.68 8.34 0.36 7.68 -1 7 C-1.99 7.495 -1.99 7.495 -3 8 C-3 7.01 -3 6.02 -3 5 C-2.01 5 -1.02 5 0 5 C0 3.35 0 1.7 0 0 Z " fill="#818080" transform="translate(145,170)"/>
<path d="M0 0 C0.33 0 0.66 0 1 0 C1 2.64 1 5.28 1 8 C0.34 7.67 -0.32 7.34 -1 7 C-1 6.34 -1 5.68 -1 5 C-1.66 5.66 -2.32 6.32 -3 7 C-2.25 2.25 -2.25 2.25 0 0 Z " fill="#B4B3B1" transform="translate(348,319)"/>
<path d="M0 0 C0.99 1.32 1.98 2.64 3 4 C1.625 5.5 1.625 5.5 0 7 C-0.66 7 -1.32 7 -2 7 C-2 5.35 -2 3.7 -2 2 C-1.34 2 -0.68 2 0 2 C0 1.34 0 0.68 0 0 Z " fill="#999797" transform="translate(269,372)"/>
<path d="M0 0 C0.99 0.33 1.98 0.66 3 1 C4.1875 4.0625 4.1875 4.0625 5 7 C3.0625 6.3125 3.0625 6.3125 1 5 C0.25 2.375 0.25 2.375 0 0 Z " fill="#A7A5A5" transform="translate(198,361)"/>
<path d="M0 0 C0.99 0.33 1.98 0.66 3 1 C3 1.66 3 2.32 3 3 C3.66 3 4.32 3 5 3 C4.67 4.32 4.34 5.64 4 7 C2 6 2 6 0 4 C0 2.68 0 1.36 0 0 Z " fill="#797777" transform="translate(127,240)"/>
<path d="M0 0 C0.33 0 0.66 0 1 0 C2.25 7.625 2.25 7.625 0 11 C-0.66 11 -1.32 11 -2 11 C-1.34 7.37 -0.68 3.74 0 0 Z " fill="#A9A8A7" transform="translate(354,168)"/>
<path d="M0 0 C2.97 0.33 5.94 0.66 9 1 C6 3 6 3 3.375 2.75 C2.59125 2.5025 1.8075 2.255 1 2 C0.67 1.34 0.34 0.68 0 0 Z " fill="#908F8C" transform="translate(226,139)"/>
<path d="M0 0 C-2.55991624 2.01136276 -5.04590299 3.62845496 -8 5 C-7.1875 2.5625 -7.1875 2.5625 -6 0 C-3 -1 -3 -1 0 0 Z " fill="#CFCECB" transform="translate(313,214)"/>
<path d="" fill="#000000" transform="translate(0,0)"/>
<path d="" fill="#000000" transform="translate(0,0)"/>
<path d="" fill="#000000" transform="translate(0,0)"/>
<path d="" fill="#000000" transform="translate(0,0)"/>
<path d="" fill="#000000" transform="translate(0,0)"/>
<path d="" fill="#000000" transform="translate(0,0)"/>
<path d="" fill="#000000" transform="translate(0,0)"/>
<path d="" fill="#000000" transform="translate(0,0)"/>
<path d="" fill="#000000" transform="translate(0,0)"/>
<path d="" fill="#000000" transform="translate(0,0)"/>
<path d="" fill="#000000" transform="translate(0,0)"/>
<path d="" fill="#000000" transform="translate(0,0)"/>
<path d="" fill="#000000" transform="translate(0,0)"/>
<path d="" fill="#000000" transform="translate(0,0)"/>
<path d="" fill="#000000" transform="translate(0,0)"/>
<path d="" fill="#000000" transform="translate(0,0)"/>
<path d="" fill="#000000" transform="translate(0,0)"/>
<path d="" fill="#000000" transform="translate(0,0)"/>
<path d="" fill="#000000" transform="translate(0,0)"/>
<path d="" fill="#000000" transform="translate(0,0)"/>
<path d="" fill="#000000" transform="translate(0,0)"/>
<path d="" fill="#000000" transform="translate(0,0)"/>
<path d="" fill="#000000" transform="translate(0,0)"/>
<path d="" fill="#000000" transform="translate(0,0)"/>
<path d="" fill="#000000" transform="translate(0,0)"/>
<path d="" fill="#000000" transform="translate(0,0)"/>
<path d="" fill="#000000" transform="translate(0,0)"/>
<path d="" fill="#000000" transform="translate(0,0)"/>
<path d="" fill="#000000" transform="translate(0,0)"/>
<path d="" fill="#000000" transform="translate(0,0)"/>
<path d="" fill="#000000" transform="translate(0,0)"/>
<path d="" fill="#000000" transform="translate(0,0)"/>
<path d="" fill="#000000" transform="translate(0,0)"/>
<path d="" fill="#000000" transform="translate(0,0)"/>
<path d="" fill="#000000" transform="translate(0,0)"/>
<path d="" fill="#000000" transform="translate(0,0)"/>
<path d="" fill="#000000" transform="translate(0,0)"/>
<path d="" fill="#000000" transform="translate(0,0)"/>
<path d="" fill="#000000" transform="translate(0,0)"/>
<path d="" fill="#000000" transform="translate(0,0)"/>
<path d="" fill="#000000" transform="translate(0,0)"/>
<path d="" fill="#000000" transform="translate(0,0)"/>
<path d="" fill="#000000" transform="translate(0,0)"/>
<path d="" fill="#000000" transform="translate(0,0)"/>
<path d="" fill="#000000" transform="translate(0,0)"/>
<path d="" fill="#000000" transform="translate(0,0)"/>
<path d="" fill="#000000" transform="translate(0,0)"/>
<path d="" fill="#000000" transform="translate(0,0)"/>
<path d="" fill="#000000" transform="translate(0,0)"/>
<path d="" fill="#000000" transform="translate(0,0)"/>
<path d="" fill="#000000" transform="translate(0,0)"/>
<path d="" fill="#000000" transform="translate(0,0)"/>
<path d="" fill="#000000" transform="translate(0,0)"/>
<path d="" fill="#000000" transform="translate(0,0)"/>
<path d="" fill="#000000" transform="translate(0,0)"/>
<path d="" fill="#000000" transform="translate(0,0)"/>
<path d="" fill="#000000" transform="translate(0,0)"/>
<path d="" fill="#000000" transform="translate(0,0)"/>
<path d="" fill="#000000" transform="translate(0,0)"/>
<path d="" fill="#000000" transform="translate(0,0)"/>
<path d="" fill="#000000" transform="translate(0,0)"/>
<path d="" fill="#FF0000" transform="translate(0,0)"/>
<path d="" fill="#000000" transform="translate(0,0)"/>
<path d="" fill="#000000" transform="translate(0,0)"/>
<path d="" fill="#000000" transform="translate(0,0)"/>
<path d="" fill="#000000" transform="translate(0,0)"/>
<path d="" fill="#000000" transform="translate(0,0)"/>
<path d="" fill="#000000" transform="translate(0,0)"/>
<path d="" fill="#000000" transform="translate(0,0)"/>
<path d="" fill="#000000" transform="translate(0,0)"/>
<path d="" fill="#000000" transform="translate(0,0)"/>
<path d="" fill="#000000" transform="translate(0,0)"/>
<path d="" fill="#000000" transform="translate(0,0)"/>
<path d="" fill="#000000" transform="translate(0,0)"/>
<path d="" fill="#000000" transform="translate(0,0)"/>
<path d="" fill="#000000" transform="translate(0,0)"/>
<path d="" fill="#000000" transform="translate(0,0)"/>
<path d="" fill="#000000" transform="translate(0,0)"/>
<path d="" fill="#000000" transform="translate(0,0)"/>
<path d="" fill="#000000" transform="translate(0,0)"/>
<path d="" fill="#000000" transform="translate(0,0)"/>
<path d="" fill="#000000" transform="translate(0,0)"/>
<path d="" fill="#000000" transform="translate(0,0)"/>
<path d="" fill="#000000" transform="translate(0,0)"/>
<path d="" fill="#000000" transform="translate(0,0)"/>
<path d="" fill="#000000" transform="translate(0,0)"/>
<path d="" fill="#000000" transform="translate(0,0)"/>
<path d="" fill="#000000" transform="translate(0,0)"/>
<path d="" fill="#000000" transform="translate(0,0)"/>
<path d="" fill="#000000" transform="translate(0,0)"/>
<path d="" fill="#000000" transform="translate(0,0)"/>
<path d="" fill="#000000" transform="translate(0,0)"/>
<path d="" fill="#000000" transform="translate(0,0)"/>
</svg>
